<svg version="1.1" viewBox="0.0 0.0 370.0 195.0" fill="none" stroke="none" stroke-linecap="square" stroke-miterlimit="10" xmlns:xlink="http://www.w3.org/1999/xlink" xmlns="http://www.w3.org/2000/svg"><clipPath id="p.0"><path d="m0 0l960.0 0l0 720.0l-960.0 0l0 -720.0z" clip-rule="nonzero"/></clipPath><g clip-path="url(#p.0)"><path fill="#000000" fill-opacity="0.0" d="m0 0l960.0 0l0 720.0l-960.0 0z" fill-rule="evenodd"/><path fill="#cfe2f3" d="m148.98985 86.507256l-5.097122 0l0 -59.215225l-2.6797943 -2.6797905l-4.3805695 0l0 -4.640419l8.10498 0l4.5774384 4.577427l6.2729645 0l4.968506 -4.968504l9.934372 0l0 -2.35433l19.868774 0l0 3.7926502l93.07088 0l0 6.0131245l-33.070877 0l0 104.96587l76.20735 0l0 -45.22834l5.3595886 0l0 45.35958l6.0131226 0l0 6.40419l-84.706055 0l0 30.719162l-13.724411 0l0 -31.11023l-95.55643 0l0 -1.5695496l-32.679787 0l0 5.7532806l-2.8608932 4.955368l0 17.005249l2.9921265 0l0 -2.4829254l3.3989487 0l0 -3.2703552l10.196854 0l0 8.629929l-20.0 0l0 -24.70604l-3.661415 0l0 -10.719162l143.92125 0l0 -104.837265l-49.40944 0l-3.341217 -1.9291344l-28.816269 0l-5.1469727 5.146982l-9.62468 0z" fill-rule="evenodd"/><path stroke="#000000" stroke-width="1.0" stroke-linejoin="round" stroke-linecap="butt" d="m148.98985 86.507256l-5.097122 0l0 -59.215225l-2.6797943 -2.6797905l-4.3805695 0l0 -4.640419l8.10498 0l4.5774384 4.577427l6.2729645 0l4.968506 -4.968504l9.934372 0l0 -2.35433l19.868774 0l0 3.7926502l93.07088 0l0 6.0131245l-33.070877 0l0 104.96587l76.20735 0l0 -45.22834l5.3595886 0l0 45.35958l6.0131226 0l0 6.40419l-84.706055 0l0 30.719162l-13.724411 0l0 -31.11023l-95.55643 0l0 -1.5695496l-32.679787 0l0 5.7532806l-2.8608932 4.955368l0 17.005249l2.9921265 0l0 -2.4829254l3.3989487 0l0 -3.2703552l10.196854 0l0 8.629929l-20.0 0l0 -24.70604l-3.661415 0l0 -10.719162l143.92125 0l0 -104.837265l-49.40944 0l-3.341217 -1.9291344l-28.816269 0l-5.1469727 5.146982l-9.62468 0z" fill-rule="evenodd"/><path fill="#fce5cd" d="m143.63026 78.27366l-9.280838 0l0 -44.44357l9.020996 0z" fill-rule="evenodd"/><path stroke="#000000" stroke-width="1.0" stroke-linejoin="round" stroke-linecap="butt" d="m143.63026 78.27366l-9.280838 0l0 -44.44357l9.020996 0z" fill-rule="evenodd"/><path fill="#fce5cd" d="m136.44128 24.809092l-14.902878 0l0 -8.627296l19.871384 0l0 -8.758532l22.614182 0l0 8.889765l6.2729645 0l0 2.8740158l-9.934387 0l-4.7060394 4.7060356l-5.750656 0l-4.7060394 -4.7060356l-8.889755 0z" fill-rule="evenodd"/><path stroke="#000000" stroke-width="1.0" stroke-linejoin="round" stroke-linecap="butt" d="m136.44128 24.809092l-14.902878 0l0 -8.627296l19.871384 0l0 -8.758532l22.614182 0l0 8.889765l6.2729645 0l0 2.8740158l-9.934387 0l-4.7060394 4.7060356l-5.750656 0l-4.7060394 -4.7060356l-8.889755 0z" fill-rule="evenodd"/><path fill="#fce5cd" d="m196.70375 20.496756l0 -5.359581l1.5249481 -2.64042l29.194214 0l0 8.000001z" fill-rule="evenodd"/><path stroke="#000000" stroke-width="1.0" stroke-linejoin="round" stroke-linecap="butt" d="m196.70375 20.496756l0 -5.359581l1.5249481 -2.64042l29.194214 0l0 8.000001z" fill-rule="evenodd"/><path fill="#fce5cd" d="m242.58565 20.625364l0 -10.3254595l0.6167908 -2.3018374l4.3490906 0l1.5826721 2.7401576l3.908142 0l2.3307037 2.3307085l28.65091 0l1.9028931 3.296587l0 5.1758537l4.1102295 0l1.9055176 3.2992134l0 8.464565l-1.3884583 2.406826l-2.2178345 0l0 10.404198l-1.8162842 3.1443596l-28.118103 0l0 57.11811l-7.0577393 0l0 -78.69292l33.07086 0l0 -7.1889763z" fill-rule="evenodd"/><path stroke="#000000" stroke-width="1.0" stroke-linejoin="round" stroke-linecap="butt" d="m242.58565 20.625364l0 -10.3254595l0.6167908 -2.3018374l4.3490906 0l1.5826721 2.7401576l3.908142 0l2.3307037 2.3307085l28.65091 0l1.9028931 3.296587l0 5.1758537l4.1102295 0l1.9055176 3.2992134l0 8.464565l-1.3884583 2.406826l-2.2178345 0l0 10.404198l-1.8162842 3.1443596l-28.118103 0l0 57.11811l-7.0577393 0l0 -78.69292l33.07086 0l0 -7.1889763z" fill-rule="evenodd"/><path fill="#fce5cd" d="m149.64339 86.63849l0 -56.078743l9.803146 0l1.438324 -1.4383202l0 4.8372707l9.934387 0l0 52.288715z" fill-rule="evenodd"/><path stroke="#000000" stroke-width="1.0" stroke-linejoin="round" stroke-linecap="butt" d="m149.64339 86.63849l0 -56.078743l9.803146 0l1.438324 -1.4383202l0 4.8372707l9.934387 0l0 52.288715z" fill-rule="evenodd"/><path fill="#fce5cd" d="m196.31006 27.554497l0 7.1889763l-1.9606323 0l0 10.850395l1.994751 3.4540672l27.939636 0l0 57.068245l20.784775 0l0 -57.254597l-6.7978973 0l0 -10.587925l6.7978973 0l0 -10.587927z" fill-rule="evenodd"/><path stroke="#000000" stroke-width="1.0" stroke-linejoin="round" stroke-linecap="butt" d="m196.31006 27.554497l0 7.1889763l-1.9606323 0l0 10.850395l1.994751 3.4540672l27.939636 0l0 57.068245l20.784775 0l0 -57.254597l-6.7978973 0l0 -10.587925l6.7978973 0l0 -10.587927z" fill-rule="evenodd"/><path fill="#fce5cd" d="m244.93735 131.34453l0 -18.561684l-153.20209 0l0 18.430443z" fill-rule="evenodd"/><path stroke="#000000" stroke-width="1.0" stroke-linejoin="round" stroke-linecap="butt" d="m244.93735 131.34453l0 -18.561684l-153.20209 0l0 18.430443z" fill-rule="evenodd"/><path fill="#fce5cd" d="m91.34418 112.26054l0 26.144356l-37.779526 0l0 36.601044l-25.881891 0l0 -8.75853l-16.209974 0l0 -49.543304l33.07349 0l0 4.7060394l6.666668 0l0 -9.149605z" fill-rule="evenodd"/><path stroke="#000000" stroke-width="1.0" stroke-linejoin="round" stroke-linecap="butt" d="m91.34418 112.26054l0 26.144356l-37.779526 0l0 36.601044l-25.881891 0l0 -8.75853l-16.209974 0l0 -49.543304l33.07349 0l0 4.7060394l6.666668 0l0 -9.149605z" fill-rule="evenodd"/><path fill="#fce5cd" d="m101.27856 137.35765l-8.889763 0l0 2.091858l-1.5695496 0l0 21.307083l9.805771 0l0 6.275589l4.1811066 0l0 -23.530182l-3.7900314 0z" fill-rule="evenodd"/><path stroke="#000000" stroke-width="1.0" stroke-linejoin="round" stroke-linecap="butt" d="m101.27856 137.35765l-8.889763 0l0 2.091858l-1.5695496 0l0 21.307083l9.805771 0l0 6.275589l4.1811066 0l0 -23.530182l-3.7900314 0z" fill-rule="evenodd"/><path fill="#fce5cd" d="m105.72213 167.68573l0 7.4514465l4.1837234 0l0.532814 1.9921265l14.238846 0l0.37007904 -1.3805847l18.713913 0l0 -2.1810913l27.451431 0l0 -23.007874l43.530197 0l17.963242 -0.23097229l0 -2.3989563l6.897644 0.2992096l-0.45144653 21.59056l6.7007904 0.08660889l-6.7978973 0l0 -21.960632l-6.4042053 0l0 -9.018372l-64.70604 0l0 5.490814l-8.75853 0l0 -5.62204l-15.687653 0l0 -1.6981659l-31.241478 0l0 5.6194153l-2.7559052 4.7742767l0 16.272964l1.7112885 0l0 -2.3543243l3.3989487 0l0 -3.2677155l11.372704 0l0 9.934387z" fill-rule="evenodd"/><path stroke="#000000" stroke-width="1.0" stroke-linejoin="round" stroke-linecap="butt" d="m105.72213 167.68573l0 7.4514465l4.1837234 0l0.532814 1.9921265l14.238846 0l0.37007904 -1.3805847l18.713913 0l0 -2.1810913l27.451431 0l0 -23.007874l43.530197 0l17.963242 -0.23097229l0 -2.3989563l6.897644 0.2992096l-0.45144653 21.59056l6.7007904 0.08660889l-6.7978973 0l0 -21.960632l-6.4042053 0l0 -9.018372l-64.70604 0l0 5.490814l-8.75853 0l0 -5.62204l-15.687653 0l0 -1.6981659l-31.241478 0l0 5.6194153l-2.7559052 4.7742767l0 16.272964l1.7112885 0l0 -2.3543243l3.3989487 0l0 -3.2677155l11.372704 0l0 9.934387z" fill-rule="evenodd"/><path fill="#fce5cd" d="m250.1657 176.1818l0 -6.275589l3.9238892 0l0 -30.719162l40.391068 0l0 37.12599z" fill-rule="evenodd"/><path stroke="#000000" stroke-width="1.0" stroke-linejoin="round" stroke-linecap="butt" d="m250.1657 176.1818l0 -6.275589l3.9238892 0l0 -30.719162l40.391068 0l0 37.12599z" fill-rule="evenodd"/><path fill="#b4a7d6" d="m295.52527 176.31303l0 -36.99475l30.328094 0l0 5.8818817l5.490814 0l0 6.0131226l7.188965 0l0 -38.561676l-6.0131226 0l0 -25.48819l21.307098 0l0 24.965881l3.005249 0l0 64.44357z" fill-rule="evenodd"/><path stroke="#000000" stroke-width="1.0" stroke-linejoin="round" stroke-linecap="butt" d="m295.52527 176.31303l0 -36.99475l30.328094 0l0 5.8818817l5.490814 0l0 6.0131226l7.188965 0l0 -38.561676l-6.0131226 0l0 -25.48819l21.307098 0l0 24.965881l3.005249 0l0 64.44357z" fill-rule="evenodd"/><path fill="#fce5cd" d="m337.61716 125.46263l-4.8372803 0l0 -11.895012l5.0997314 0z" fill-rule="evenodd"/><path stroke="#000000" stroke-width="1.0" stroke-linejoin="round" stroke-linecap="butt" d="m337.61716 125.46263l-4.8372803 0l0 -11.895012l5.0997314 0z" fill-rule="evenodd"/><path fill="#fce5cd" d="m326.24445 86.900955l-7.1889954 0l0 25.88189l-67.58266 0l0 18.69291l75.0341 0z" fill-rule="evenodd"/><path stroke="#000000" stroke-width="1.0" stroke-linejoin="round" stroke-linecap="butt" d="m326.24445 86.900955l-7.1889954 0l0 25.88189l-67.58266 0l0 18.69291l75.0341 0z" fill-rule="evenodd"/><path fill="#b4a7d6" d="m101.14732 136.83534l0 -5.228348l-9.149605 0l0 5.228348z" fill-rule="evenodd"/><path stroke="#000000" stroke-width="1.0" stroke-linejoin="round" stroke-linecap="butt" d="m101.14732 136.83534l0 -5.228348l-9.149605 0l0 5.228348z" fill-rule="evenodd"/><path fill="#b4a7d6" d="m91.99772 161.2789l0 13.59581l13.202103 0l0 -7.18898l-5.099739 -0.13122559l-0.1286087 -6.0131226z" fill-rule="evenodd"/><path stroke="#000000" stroke-width="1.0" stroke-linejoin="round" stroke-linecap="butt" d="m91.99772 161.2789l0 13.59581l13.202103 0l0 -7.18898l-5.099739 -0.13122559l-0.1286087 -6.0131226z" fill-rule="evenodd"/><path fill="#b4a7d6" d="m159.709 138.66473l0 5.228348l7.713913 0l0 -5.228348z" fill-rule="evenodd"/><path stroke="#000000" stroke-width="1.0" stroke-linejoin="round" stroke-linecap="butt" d="m159.709 138.66473l0 5.228348l7.713913 0l0 -5.228348z" fill-rule="evenodd"/><path fill="#b4a7d6" d="m233.30481 138.5335l0 8.758545l5.8818817 0l0 -8.758545z" fill-rule="evenodd"/><path stroke="#000000" stroke-width="1.0" stroke-linejoin="round" stroke-linecap="butt" d="m233.30481 138.5335l0 8.758545l5.8818817 0l0 -8.758545z" fill-rule="evenodd"/><path fill="#b4a7d6" d="m246.50691 175.91933l0 -6.141739l3.2677155 0l0 6.4042053z" fill-rule="evenodd"/><path stroke="#000000" stroke-width="1.0" stroke-linejoin="round" stroke-linecap="butt" d="m246.50691 175.91933l0 -6.141739l3.2677155 0l0 6.4042053z" fill-rule="evenodd"/><path fill="#b4a7d6" d="m326.37567 144.67786l0 -5.6194153l4.968506 0l0 5.750656z" fill-rule="evenodd"/><path stroke="#000000" stroke-width="1.0" stroke-linejoin="round" stroke-linecap="butt" d="m326.37567 144.67786l0 -5.6194153l4.968506 0l0 5.750656z" fill-rule="evenodd"/><path fill="#b4a7d6" d="m331.9977 150.69098l0 -11.632538l5.881897 0l0 11.501312z" fill-rule="evenodd"/><path stroke="#000000" stroke-width="1.0" stroke-linejoin="round" stroke-linecap="butt" d="m331.9977 150.69098l0 -11.632538l5.881897 0l0 11.501312z" fill-rule="evenodd"/><path fill="#b4a7d6" d="m332.77988 131.607l0 -5.6220474l5.3595886 0l0 5.6220474z" fill-rule="evenodd"/><path stroke="#000000" stroke-width="1.0" stroke-linejoin="round" stroke-linecap="butt" d="m332.77988 131.607l0 -5.6220474l5.3595886 0l0 5.6220474z" fill-rule="evenodd"/><path fill="#000000" fill-opacity="0.0" d="m335.39667 125.98495l0 5.889763" fill-rule="evenodd"/><path stroke="#000000" stroke-width="1.0" stroke-linejoin="round" stroke-linecap="butt" d="m335.39667 125.98495l0 5.889763" fill-rule="evenodd"/><path fill="#b4a7d6" d="m245.06859 48.208042l0 -9.280842l-6.4042053 0l0 9.280842z" fill-rule="evenodd"/><path stroke="#000000" stroke-width="1.0" stroke-linejoin="round" stroke-linecap="butt" d="m245.06859 48.208042l0 -9.280842l-6.4042053 0l0 9.280842z" fill-rule="evenodd"/><path fill="#b4a7d6" d="m242.58565 20.36552l0 -9.280839l-12.942261 0l-1.6981659 1.698163l0 7.582676z" fill-rule="evenodd"/><path stroke="#000000" stroke-width="1.0" stroke-linejoin="round" stroke-linecap="butt" d="m242.58565 20.36552l0 -9.280839l-12.942261 0l-1.6981659 1.698163l0 7.582676z" fill-rule="evenodd"/><path fill="#b4a7d6" d="m195.91898 27.685732l-3.3175812 -1.9160118l-2.3044586 0l0 6.0971127l1.5800476 2.7375336l4.173233 0z" fill-rule="evenodd"/><path stroke="#000000" stroke-width="1.0" stroke-linejoin="round" stroke-linecap="butt" d="m195.91898 27.685732l-3.3175812 -1.9160118l-2.3044586 0l0 6.0971127l1.5800476 2.7375336l4.173233 0z" fill-rule="evenodd"/><path fill="#b4a7d6" d="m166.76675 33.436386l0 -7.7112846l-2.4829407 0l-2.9396362 2.9396324l0 4.640419z" fill-rule="evenodd"/><path stroke="#000000" stroke-width="1.0" stroke-linejoin="round" stroke-linecap="butt" d="m166.76675 33.436386l0 -7.7112846l-2.4829407 0l-2.9396362 2.9396324l0 4.640419z" fill-rule="evenodd"/><path fill="#b4a7d6" d="m143.37042 33.17392l0 -5.488188l-2.417328 -2.417324l-2.6824036 0l0 7.905512z" fill-rule="evenodd"/><path stroke="#000000" stroke-width="1.0" stroke-linejoin="round" stroke-linecap="butt" d="m143.37042 33.17392l0 -5.488188l-2.417328 -2.417324l-2.6824036 0l0 7.905512z" fill-rule="evenodd"/><path fill="#b4a7d6" d="m143.37042 78.9272l-8.75853 0l0 7.057747l8.887146 0z" fill-rule="evenodd"/><path stroke="#000000" stroke-width="1.0" stroke-linejoin="round" stroke-linecap="butt" d="m143.37042 78.9272l-8.75853 0l0 7.057747l8.887146 0z" fill-rule="evenodd"/><path fill="#000000" fill-opacity="0.0" d="m235.65651 11.344523l0 8.88189" fill-rule="evenodd"/><path stroke="#000000" stroke-width="1.0" stroke-linejoin="round" stroke-linecap="butt" d="m235.65651 11.344523l0 8.88189" fill-rule="evenodd"/><path fill="#000000" fill-opacity="0.0" d="m143.95047 70.418015l-9.007874 0" fill-rule="evenodd"/><path stroke="#000000" stroke-width="1.0" stroke-linejoin="round" stroke-linecap="butt" d="m143.95047 70.418015l-9.007874 0" fill-rule="evenodd"/><path fill="#000000" fill-opacity="0.0" d="m143.65126 63.822216l-8.850388 0" fill-rule="evenodd"/><path stroke="#000000" stroke-width="1.0" stroke-linejoin="round" stroke-linecap="butt" d="m143.65126 63.822216l-8.850388 0" fill-rule="evenodd"/><path fill="#000000" fill-opacity="0.0" d="m143.95047 56.02694l-9.007874 0" fill-rule="evenodd"/><path stroke="#000000" stroke-width="1.0" stroke-linejoin="round" stroke-linecap="butt" d="m143.95047 56.02694l-9.007874 0" fill-rule="evenodd"/><path fill="#000000" fill-opacity="0.0" d="m143.80087 49.1293l-9.133865 0" fill-rule="evenodd"/><path stroke="#000000" stroke-width="1.0" stroke-linejoin="round" stroke-linecap="butt" d="m143.80087 49.1293l-9.133865 0" fill-rule="evenodd"/><path fill="#000000" fill-opacity="0.0" d="m143.50166 41.782845l-8.692917 0" fill-rule="evenodd"/><path stroke="#000000" stroke-width="1.0" stroke-linejoin="round" stroke-linecap="butt" d="m143.50166 41.782845l-8.692917 0" fill-rule="evenodd"/><path fill="#000000" fill-opacity="0.0" d="m149.79825 66.22116l21.13385 0" fill-rule="evenodd"/><path stroke="#000000" stroke-width="1.0" stroke-linejoin="round" stroke-linecap="butt" d="m149.79825 66.22116l21.13385 0" fill-rule="evenodd"/><path fill="#000000" fill-opacity="0.0" d="m149.64864 60.523003l20.97638 0" fill-rule="evenodd"/><path stroke="#000000" stroke-width="1.0" stroke-linejoin="round" stroke-linecap="butt" d="m149.64864 60.523003l20.97638 0" fill-rule="evenodd"/><path fill="#000000" fill-opacity="0.0" d="m149.79825 46.879955l20.850388 0" fill-rule="evenodd"/><path stroke="#000000" stroke-width="1.0" stroke-linejoin="round" stroke-linecap="butt" d="m149.79825 46.879955l20.850388 0" fill-rule="evenodd"/><path fill="#000000" fill-opacity="0.0" d="m149.34943 35.635864l20.97638 0" fill-rule="evenodd"/><path stroke="#000000" stroke-width="1.0" stroke-linejoin="round" stroke-linecap="butt" d="m149.34943 35.635864l20.97638 0" fill-rule="evenodd"/><path fill="#000000" fill-opacity="0.0" d="m136.90585 19.593868l-2.708664 0" fill-rule="evenodd"/><path stroke="#000000" stroke-width="1.0" stroke-linejoin="round" stroke-linecap="butt" d="m136.90585 19.593868l-2.708664 0" fill-rule="evenodd"/><path fill="#000000" fill-opacity="0.0" d="m134.20506 19.593868l0 -3.1496067" fill-rule="evenodd"/><path stroke="#000000" stroke-width="1.0" stroke-linejoin="round" stroke-linecap="butt" d="m134.20506 19.593868l0 -3.1496067" fill-rule="evenodd"/><path fill="#000000" fill-opacity="0.0" d="m141.55153 16.294655l0 3.4645672" fill-rule="evenodd"/><path stroke="#000000" stroke-width="1.0" stroke-linejoin="round" stroke-linecap="butt" d="m141.55153 16.294655l0 3.4645672" fill-rule="evenodd"/><path fill="#000000" fill-opacity="0.0" d="m164.49117 16.294655l0 2.8661423" fill-rule="evenodd"/><path stroke="#000000" stroke-width="1.0" stroke-linejoin="round" stroke-linecap="butt" d="m164.49117 16.294655l0 2.8661423" fill-rule="evenodd"/><path fill="#000000" fill-opacity="0.0" d="m203.17094 27.840588l0 20.976376" fill-rule="evenodd"/><path stroke="#000000" stroke-width="1.0" stroke-linejoin="round" stroke-linecap="butt" d="m203.17094 27.840588l0 20.976376" fill-rule="evenodd"/><path fill="#000000" fill-opacity="0.0" d="m224.16045 49.428513l3.7480316 0" fill-rule="evenodd"/><path stroke="#000000" stroke-width="1.0" stroke-linejoin="round" stroke-linecap="butt" d="m224.16045 49.428513l3.7480316 0" fill-rule="evenodd"/><path fill="#000000" fill-opacity="0.0" d="m227.90848 49.428513l0 -21.291338" fill-rule="evenodd"/><path stroke="#000000" stroke-width="1.0" stroke-linejoin="round" stroke-linecap="butt" d="m227.90848 49.428513l0 -21.291338" fill-rule="evenodd"/><path fill="#000000" fill-opacity="0.0" d="m238.55415 38.48363l0 -10.488188" fill-rule="evenodd"/><path stroke="#000000" stroke-width="1.0" stroke-linejoin="round" stroke-linecap="butt" d="m238.55415 38.48363l0 -10.488188" fill-rule="evenodd"/><path fill="#000000" fill-opacity="0.0" d="m244.85074 56.176544l-19.779526 0" fill-rule="evenodd"/><path stroke="#000000" stroke-width="1.0" stroke-linejoin="round" stroke-linecap="butt" d="m244.85074 56.176544l-19.779526 0" fill-rule="evenodd"/><path fill="#000000" fill-opacity="0.0" d="m245.45178 73.26841l-20.53543 0" fill-rule="evenodd"/><path stroke="#000000" stroke-width="1.0" stroke-linejoin="round" stroke-linecap="butt" d="m245.45178 73.26841l-20.53543 0" fill-rule="evenodd"/><path fill="#000000" fill-opacity="0.0" d="m258.49377 99.50463l-6.740143 0" fill-rule="evenodd"/><path stroke="#000000" stroke-width="1.0" stroke-linejoin="round" stroke-linecap="butt" d="m258.49377 99.50463l-6.740143 0" fill-rule="evenodd"/><path fill="#000000" fill-opacity="0.0" d="m258.34418 93.05843l-6.740158 0" fill-rule="evenodd"/><path stroke="#000000" stroke-width="1.0" stroke-linejoin="round" stroke-linecap="butt" d="m258.34418 93.05843l-6.740158 0" fill-rule="evenodd"/><path fill="#000000" fill-opacity="0.0" d="m258.6434 86.91145l-7.05513 0" fill-rule="evenodd"/><path stroke="#000000" stroke-width="1.0" stroke-linejoin="round" stroke-linecap="butt" d="m258.6434 86.91145l-7.05513 0" fill-rule="evenodd"/><path fill="#000000" fill-opacity="0.0" d="m258.19458 80.01382l-6.7401733 0" fill-rule="evenodd"/><path stroke="#000000" stroke-width="1.0" stroke-linejoin="round" stroke-linecap="butt" d="m258.19458 80.01382l-6.7401733 0" fill-rule="evenodd"/><path fill="#000000" fill-opacity="0.0" d="m258.49377 74.166046l-7.0551147 0" fill-rule="evenodd"/><path stroke="#000000" stroke-width="1.0" stroke-linejoin="round" stroke-linecap="butt" d="m258.49377 74.166046l-7.0551147 0" fill-rule="evenodd"/><path fill="#000000" fill-opacity="0.0" d="m258.49377 67.570244l-7.496048 0" fill-rule="evenodd"/><path stroke="#000000" stroke-width="1.0" stroke-linejoin="round" stroke-linecap="butt" d="m258.49377 67.570244l-7.496048 0" fill-rule="evenodd"/><path fill="#000000" fill-opacity="0.0" d="m258.34418 61.27366l-6.582672 0" fill-rule="evenodd"/><path stroke="#000000" stroke-width="1.0" stroke-linejoin="round" stroke-linecap="butt" d="m258.34418 61.27366l-6.582672 0" fill-rule="evenodd"/><path fill="#000000" fill-opacity="0.0" d="m258.49377 54.97707l-7.496048 0" fill-rule="evenodd"/><path stroke="#000000" stroke-width="1.0" stroke-linejoin="round" stroke-linecap="butt" d="m258.49377 54.97707l-7.496048 0" fill-rule="evenodd"/><path fill="#000000" fill-opacity="0.0" d="m259.09482 49.57812l-7.338562 0" fill-rule="evenodd"/><path stroke="#000000" stroke-width="1.0" stroke-linejoin="round" stroke-linecap="butt" d="m259.09482 49.57812l-7.338562 0" fill-rule="evenodd"/><path fill="#000000" fill-opacity="0.0" d="m274.53577 49.278908l0 -21.732285" fill-rule="evenodd"/><path stroke="#000000" stroke-width="1.0" stroke-linejoin="round" stroke-linecap="butt" d="m274.53577 49.278908l0 -21.732285" fill-rule="evenodd"/><path fill="#000000" fill-opacity="0.0" d="m288.47803 35.935074l-4.3464355 0" fill-rule="evenodd"/><path stroke="#000000" stroke-width="1.0" stroke-linejoin="round" stroke-linecap="butt" d="m288.47803 35.935074l-4.3464355 0" fill-rule="evenodd"/><path fill="#000000" fill-opacity="0.0" d="m283.98196 27.239536l0 8.692913" fill-rule="evenodd"/><path stroke="#000000" stroke-width="1.0" stroke-linejoin="round" stroke-linecap="butt" d="m283.98196 27.239536l0 8.692913" fill-rule="evenodd"/><path fill="#000000" fill-opacity="0.0" d="m286.07907 21.693605l-1.9527283 0" fill-rule="evenodd"/><path stroke="#000000" stroke-width="1.0" stroke-linejoin="round" stroke-linecap="butt" d="m286.07907 21.693605l-1.9527283 0" fill-rule="evenodd"/><path fill="#000000" fill-opacity="0.0" d="m279.48328 20.94295l0 -7.6535435" fill-rule="evenodd"/><path stroke="#000000" stroke-width="1.0" stroke-linejoin="round" stroke-linecap="butt" d="m279.48328 20.94295l0 -7.6535435" fill-rule="evenodd"/><path fill="#000000" fill-opacity="0.0" d="m273.78775 20.793343l0 -7.496063" fill-rule="evenodd"/><path stroke="#000000" stroke-width="1.0" stroke-linejoin="round" stroke-linecap="butt" d="m273.78775 20.793343l0 -7.496063" fill-rule="evenodd"/><path fill="#000000" fill-opacity="0.0" d="m266.8901 20.793343l0 -7.338582" fill-rule="evenodd"/><path stroke="#000000" stroke-width="1.0" stroke-linejoin="round" stroke-linecap="butt" d="m266.8901 20.793343l0 -7.338582" fill-rule="evenodd"/><path fill="#000000" fill-opacity="0.0" d="m260.89273 20.94295l0 -7.6535435" fill-rule="evenodd"/><path stroke="#000000" stroke-width="1.0" stroke-linejoin="round" stroke-linecap="butt" d="m260.89273 20.94295l0 -7.6535435" fill-rule="evenodd"/><path fill="#000000" fill-opacity="0.0" d="m254.44653 20.94295l0 -8.251968" fill-rule="evenodd"/><path stroke="#000000" stroke-width="1.0" stroke-linejoin="round" stroke-linecap="butt" d="m254.44653 20.94295l0 -8.251968" fill-rule="evenodd"/><path fill="#000000" fill-opacity="0.0" d="m248.59877 21.24216l0 -10.330708" fill-rule="evenodd"/><path stroke="#000000" stroke-width="1.0" stroke-linejoin="round" stroke-linecap="butt" d="m248.59877 21.24216l0 -10.330708" fill-rule="evenodd"/><path fill="#000000" fill-opacity="0.0" d="m222.21294 20.793343l0 -8.251968" fill-rule="evenodd"/><path stroke="#000000" stroke-width="1.0" stroke-linejoin="round" stroke-linecap="butt" d="m222.21294 20.793343l0 -8.251968" fill-rule="evenodd"/><path fill="#000000" fill-opacity="0.0" d="m213.96622 20.643736l0 -7.7795267" fill-rule="evenodd"/><path stroke="#000000" stroke-width="1.0" stroke-linejoin="round" stroke-linecap="butt" d="m213.96622 20.643736l0 -7.7795267" fill-rule="evenodd"/><path fill="#000000" fill-opacity="0.0" d="m205.12108 20.643736l0 -8.094487" fill-rule="evenodd"/><path stroke="#000000" stroke-width="1.0" stroke-linejoin="round" stroke-linecap="butt" d="m205.12108 20.643736l0 -8.094487" fill-rule="evenodd"/><path fill="#000000" fill-opacity="0.0" d="m276.4859 113.147675l0 18.456696" fill-rule="evenodd"/><path stroke="#000000" stroke-width="1.0" stroke-linejoin="round" stroke-linecap="butt" d="m276.4859 113.147675l0 18.456696" fill-rule="evenodd"/><path fill="#000000" fill-opacity="0.0" d="m301.22345 112.84846l0 18.58268" fill-rule="evenodd"/><path stroke="#000000" stroke-width="1.0" stroke-linejoin="round" stroke-linecap="butt" d="m301.22345 112.84846l0 18.58268" fill-rule="evenodd"/><path fill="#000000" fill-opacity="0.0" d="m326.5594 112.69623l-7.338562 0" fill-rule="evenodd"/><path stroke="#000000" stroke-width="1.0" stroke-linejoin="round" stroke-linecap="butt" d="m326.5594 112.69623l-7.338562 0" fill-rule="evenodd"/><path fill="#000000" fill-opacity="0.0" d="m326.709 105.95082l-7.181122 0" fill-rule="evenodd"/><path stroke="#000000" stroke-width="1.0" stroke-linejoin="round" stroke-linecap="butt" d="m326.709 105.95082l-7.181122 0" fill-rule="evenodd"/><path fill="#000000" fill-opacity="0.0" d="m326.86124 99.50463l-7.3385925 0" fill-rule="evenodd"/><path stroke="#000000" stroke-width="1.0" stroke-linejoin="round" stroke-linecap="butt" d="m326.86124 99.50463l-7.3385925 0" fill-rule="evenodd"/><path fill="#000000" fill-opacity="0.0" d="m326.4098 93.05843l-6.740143 0" fill-rule="evenodd"/><path stroke="#000000" stroke-width="1.0" stroke-linejoin="round" stroke-linecap="butt" d="m326.4098 93.05843l-6.740143 0" fill-rule="evenodd"/><path fill="#000000" fill-opacity="0.0" d="m208.86911 150.77759l0 -12.157471" fill-rule="evenodd"/><path stroke="#000000" stroke-width="1.0" stroke-linejoin="round" stroke-linecap="butt" d="m208.86911 150.77759l0 -12.157471" fill-rule="evenodd"/><path fill="#000000" fill-opacity="0.0" d="m189.07909 150.47838l0 -11.244095" fill-rule="evenodd"/><path stroke="#000000" stroke-width="1.0" stroke-linejoin="round" stroke-linecap="butt" d="m189.07909 150.47838l0 -11.244095" fill-rule="evenodd"/><path fill="#000000" fill-opacity="0.0" d="m172.13683 150.47838l0 -11.401566" fill-rule="evenodd"/><path stroke="#000000" stroke-width="1.0" stroke-linejoin="round" stroke-linecap="butt" d="m172.13683 150.47838l0 -11.401566" fill-rule="evenodd"/><path fill="#000000" fill-opacity="0.0" d="m232.70638 147.63062l0 3.5905457" fill-rule="evenodd"/><path stroke="#000000" stroke-width="1.0" stroke-linejoin="round" stroke-linecap="butt" d="m232.70638 147.63062l0 3.5905457" fill-rule="evenodd"/><path fill="#000000" fill-opacity="0.0" d="m232.85599 151.07944l-17.984253 0" fill-rule="evenodd"/><path stroke="#000000" stroke-width="1.0" stroke-linejoin="round" stroke-linecap="butt" d="m232.85599 151.07944l-17.984253 0" fill-rule="evenodd"/><path fill="#000000" fill-opacity="0.0" d="m143.80087 173.71722l0 -35.244095" fill-rule="evenodd"/><path stroke="#000000" stroke-width="1.0" stroke-linejoin="round" stroke-linecap="butt" d="m143.80087 173.71722l0 -35.244095" fill-rule="evenodd"/><path fill="#000000" fill-opacity="0.0" d="m125.060715 158.42326l0 -21.133865" fill-rule="evenodd"/><path stroke="#000000" stroke-width="1.0" stroke-linejoin="round" stroke-linecap="butt" d="m125.060715 158.42326l0 -21.133865" fill-rule="evenodd"/><path fill="#000000" fill-opacity="0.0" d="m132.85599 137.28415l0 23.527573" fill-rule="evenodd"/><path stroke="#000000" stroke-width="1.0" stroke-linejoin="round" stroke-linecap="butt" d="m132.85599 137.28415l0 23.527573" fill-rule="evenodd"/><path fill="#000000" fill-opacity="0.0" d="m144.25232 160.97444l-17.70079 0" fill-rule="evenodd"/><path stroke="#000000" stroke-width="1.0" stroke-linejoin="round" stroke-linecap="butt" d="m144.25232 160.97444l-17.70079 0" fill-rule="evenodd"/><path fill="#000000" fill-opacity="0.0" d="m116.21557 168.16867l0 9.007874" fill-rule="evenodd"/><path stroke="#000000" stroke-width="1.0" stroke-linejoin="round" stroke-linecap="butt" d="m116.21557 168.16867l0 9.007874" fill-rule="evenodd"/><path fill="#000000" fill-opacity="0.0" d="m125.81137 168.3209l0 7.3385773" fill-rule="evenodd"/><path stroke="#000000" stroke-width="1.0" stroke-linejoin="round" stroke-linecap="butt" d="m125.81137 168.3209l0 7.3385773" fill-rule="evenodd"/><path fill="#000000" fill-opacity="0.0" d="m105.12108 161.12405l-4.661415 0" fill-rule="evenodd"/><path stroke="#000000" stroke-width="1.0" stroke-linejoin="round" stroke-linecap="butt" d="m105.12108 161.12405l-4.661415 0" fill-rule="evenodd"/><path fill="#000000" fill-opacity="0.0" d="m101.37305 143.43114l-10.3622055 0" fill-rule="evenodd"/><path stroke="#000000" stroke-width="1.0" stroke-linejoin="round" stroke-linecap="butt" d="m101.37305 143.43114l-10.3622055 0" fill-rule="evenodd"/><path fill="#000000" fill-opacity="0.0" d="m96.87436 137.43376l0 5.984253" fill-rule="evenodd"/><path stroke="#000000" stroke-width="1.0" stroke-linejoin="round" stroke-linecap="butt" d="m96.87436 137.43376l0 5.984253" fill-rule="evenodd"/><path fill="#000000" fill-opacity="0.0" d="m116.9636 130.68835l0 -17.700783" fill-rule="evenodd"/><path stroke="#000000" stroke-width="1.0" stroke-linejoin="round" stroke-linecap="butt" d="m116.9636 130.68835l0 -17.700783" fill-rule="evenodd"/><path fill="#000000" fill-opacity="0.0" d="m144.55153 130.53874l0 -18.299202" fill-rule="evenodd"/><path stroke="#000000" stroke-width="1.0" stroke-linejoin="round" stroke-linecap="butt" d="m144.55153 130.53874l0 -18.299202" fill-rule="evenodd"/><path fill="#000000" fill-opacity="0.0" d="m179.63289 131.43901l0 -18.425194" fill-rule="evenodd"/><path stroke="#000000" stroke-width="1.0" stroke-linejoin="round" stroke-linecap="butt" d="m179.63289 131.43901l0 -18.425194" fill-rule="evenodd"/><path fill="#000000" fill-opacity="0.0" d="m221.7615 131.58862l0 -4.6614227" fill-rule="evenodd"/><path stroke="#000000" stroke-width="1.0" stroke-linejoin="round" stroke-linecap="butt" d="m221.7615 131.58862l0 -4.6614227" fill-rule="evenodd"/><path fill="#000000" fill-opacity="0.0" d="m221.7615 127.08993l23.527557 0" fill-rule="evenodd"/><path stroke="#000000" stroke-width="1.0" stroke-linejoin="round" stroke-linecap="butt" d="m221.7615 127.08993l23.527557 0" fill-rule="evenodd"/><path fill="#000000" fill-opacity="0.0" d="m240.35205 131.73822l0 -4.661415" fill-rule="evenodd"/><path stroke="#000000" stroke-width="1.0" stroke-linejoin="round" stroke-linecap="butt" d="m240.35205 131.73822l0 -4.661415" fill-rule="evenodd"/><path fill="#000000" fill-opacity="0.0" d="m370.5187 195.14107l0 -195.30708" fill-rule="evenodd"/><path stroke="#000000" stroke-width="1.0" stroke-linejoin="round" stroke-linecap="butt" d="m370.5187 195.14107l0 -195.30708" fill-rule="evenodd"/><path fill="#000000" fill-opacity="0.0" d="m370.62894 -0.034781102l-370.58267 0" fill-rule="evenodd"/><path stroke="#000000" stroke-width="1.0" stroke-linejoin="round" stroke-linecap="butt" d="m370.62894 -0.034781102l-370.58267 0" fill-rule="evenodd"/><path fill="#000000" fill-opacity="0.0" d="m-9.88189E-4 194.63713l0 -194.96063" fill-rule="evenodd"/><path stroke="#000000" stroke-width="1.0" stroke-linejoin="round" stroke-linecap="butt" d="m-9.88189E-4 194.63713l0 -194.96063" fill-rule="evenodd"/><path fill="#000000" fill-opacity="0.0" d="m370.62894 194.76312l-370.58267 0" fill-rule="evenodd"/><path stroke="#000000" stroke-width="1.0" stroke-linejoin="round" stroke-linecap="butt" d="m370.62894 194.76312l-370.58267 0" fill-rule="evenodd"/></g></svg>
