<svg version="1.1" viewBox="0.0 0.0 370.0 195.0" fill="none" stroke="none" stroke-linecap="square" stroke-miterlimit="10" xmlns:xlink="http://www.w3.org/1999/xlink" xmlns="http://www.w3.org/2000/svg"><clipPath id="p.0"><path d="m0 0l960.0 0l0 720.0l-960.0 0l0 -720.0z" clip-rule="nonzero"/></clipPath><g clip-path="url(#p.0)"><path fill="#000000" fill-opacity="0.0" d="m0 0l960.0 0l0 720.0l-960.0 0z" fill-rule="evenodd"/><path fill="#cfe2f3" d="m219.00131 136.45932l0 -5.0078735l12.091858 0l3.4881897 -2.0131226l14.992126 0l0 -25.622047l-13.29921 0l0 -78.92914l-14.335953 0l0 -5.698162l30.56955 0l0 4.834646l-10.18898 0l0 70.29397l13.125992 0l0 10.362198l7.4252014 0l0 6.2178497l-7.7716675 0l0 18.82415l78.23886 0l0 -44.039375l6.5643005 0l0 38.85827l6.3884583 0l0 6.7375336l6.2178345 0l0 6.908142l-97.58267 0l0 17.790024l-4.834656 0l0 -19.0z" fill-rule="evenodd"/><path stroke="#000000" stroke-width="1.0" stroke-linejoin="round" stroke-linecap="butt" d="m219.00131 136.45932l0 -5.0078735l12.091858 0l3.4881897 -2.0131226l14.992126 0l0 -25.622047l-13.29921 0l0 -78.92914l-14.335953 0l0 -5.698162l30.56955 0l0 4.834646l-10.18898 0l0 70.29397l13.125992 0l0 10.362198l7.4252014 0l0 6.2178497l-7.7716675 0l0 18.82415l78.23886 0l0 -44.039375l6.5643005 0l0 38.85827l6.3884583 0l0 6.7375336l6.2178345 0l0 6.908142l-97.58267 0l0 17.790024l-4.834656 0l0 -19.0z" fill-rule="evenodd"/><path fill="#cfe2f3" d="m149.57349 79.291336l0 -49.740154l8.635178 0l0 -2.4199486l3.9711304 0l1.5957947 -2.7664032l36.228348 0l0 -5.1758537l-8.808395 0l0 -3.4566927l-19.687668 0l0 3.1102362l-7.9448853 0l-6.5118103 3.7611542l-7.4776917 0l-4.215225 -4.212597l-4.076111 0l-2.9291382 5.07349l2.9291382 0l3.1286163 3.1286087l0 53.044617z" fill-rule="evenodd"/><path stroke="#000000" stroke-width="1.0" stroke-linejoin="round" stroke-linecap="butt" d="m149.57349 79.291336l0 -49.740154l8.635178 0l0 -2.4199486l3.9711304 0l1.5957947 -2.7664032l36.228348 0l0 -5.1758537l-8.808395 0l0 -3.4566927l-19.687668 0l0 3.1102362l-7.9448853 0l-6.5118103 3.7611542l-7.4776917 0l-4.215225 -4.212597l-4.076111 0l-2.9291382 5.07349l2.9291382 0l3.1286163 3.1286087l0 53.044617z" fill-rule="evenodd"/><path fill="#fce5cd" d="m171.33464 33.349083l0 50.950127l-37.65091 0l0 -51.46719l10.015747 0l0 46.63255l6.7375336 0l0 -49.396328l8.288712 0l0 -2.4173222l2.9370117 0l0 5.5275593z" fill-rule="evenodd"/><path stroke="#000000" stroke-width="1.0" stroke-linejoin="round" stroke-linecap="butt" d="m171.33464 33.349083l0 50.950127l-37.65091 0l0 -51.46719l10.015747 0l0 46.63255l6.7375336 0l0 -49.396328l8.288712 0l0 -2.4173222l2.9370117 0l0 5.5275593z" fill-rule="evenodd"/><path fill="#fce5cd" d="m138.00131 23.333334l-17.963257 0l0 -8.291339l21.417328 0l0 -7.2545934l22.624664 0l0 7.4278216l7.254593 0l0 3.28084l-7.94487 0l-6.1049957 3.5249348l-7.54068 0l-3.7480316 -3.745407l-4.713913 0z" fill-rule="evenodd"/><path stroke="#000000" stroke-width="1.0" stroke-linejoin="round" stroke-linecap="butt" d="m138.00131 23.333334l-17.963257 0l0 -8.291339l21.417328 0l0 -7.2545934l22.624664 0l0 7.4278216l7.254593 0l0 3.28084l-7.94487 0l-6.1049957 3.5249348l-7.54068 0l-3.7480316 -3.745407l-4.713913 0z" fill-rule="evenodd"/><path fill="#fce5cd" d="m197.58661 33.00525l-2.9369965 0l0 9.845146l1.8950043 3.2834625l22.803146 0l0 48.527557l7.771652 0l0.81103516 -3.0288696l8.343826 0l0 -66.22835l-15.026245 0l0 -6.734909l9.152237 0l0 -7.4251957l-31.259842 0l-2.0131226 3.4881887l0 3.937007l3.566925 0l0 6.0446205l-3.280838 0z" fill-rule="evenodd"/><path stroke="#000000" stroke-width="1.0" stroke-linejoin="round" stroke-linecap="butt" d="m197.58661 33.00525l-2.9369965 0l0 9.845146l1.8950043 3.2834625l22.803146 0l0 48.527557l7.771652 0l0.81103516 -3.0288696l8.343826 0l0 -66.22835l-15.026245 0l0 -6.734909l9.152237 0l0 -7.4251957l-31.259842 0l-2.0131226 3.4881887l0 3.937007l3.566925 0l0 6.0446205l-3.280838 0z" fill-rule="evenodd"/><path fill="#fce5cd" d="m236.27428 98.28871l-9.328079 0l0 12.435699l-2.590561 0l0 -8.63517l-13.29921 0l0 7.598427l-64.41994 0l0 29.53543l28.496063 0l0 9.498688l60.96849 0l0 -11.398956l-17.443558 0l0 -6.3910675l12.089233 0l3.6745453 -2.1207428l15.152222 0l0 -24.648293l-13.818893 0z" fill-rule="evenodd"/><path stroke="#000000" stroke-width="1.0" stroke-linejoin="round" stroke-linecap="butt" d="m236.27428 98.28871l-9.328079 0l0 12.435699l-2.590561 0l0 -8.63517l-13.29921 0l0 7.598427l-64.41994 0l0 29.53543l28.496063 0l0 9.498688l60.96849 0l0 -11.398956l-17.443558 0l0 -6.3910675l12.089233 0l3.6745453 -2.1207428l15.152222 0l0 -24.648293l-13.818893 0z" fill-rule="evenodd"/><path fill="#fce5cd" d="m250.09055 156.3202l0 5.3543396l-13.643036 0l0 13.125977l129.01312 0l0 -62.866142l-3.454071 0l0 -25.215218l-21.414703 0l0 36.958l6.391083 0l0 7.0813675l6.3884583 0l0 8.291336l-97.58269 0l0 17.960632z" fill-rule="evenodd"/><path stroke="#000000" stroke-width="1.0" stroke-linejoin="round" stroke-linecap="butt" d="m250.09055 156.3202l0 5.3543396l-13.643036 0l0 13.125977l129.01312 0l0 -62.866142l-3.454071 0l0 -25.215218l-21.414703 0l0 36.958l6.391083 0l0 7.0813675l6.3884583 0l0 8.291336l-97.58269 0l0 17.960632z" fill-rule="evenodd"/><path fill="#b4a7d6" d="m339.79135 139.04987l0 9.671921l6.2178345 0l0 -9.498688z" fill-rule="evenodd"/><path stroke="#000000" stroke-width="1.0" stroke-linejoin="round" stroke-linecap="butt" d="m339.79135 139.04987l0 9.671921l6.2178345 0l0 -9.498688z" fill-rule="evenodd"/><path fill="#fce5cd" d="m333.16403 86.026245l-7.08136 0l0 25.908134l-70.12073 0l0 17.44358l77.20209 0z" fill-rule="evenodd"/><path stroke="#000000" stroke-width="1.0" stroke-linejoin="round" stroke-linecap="butt" d="m333.16403 86.026245l-7.08136 0l0 25.908134l-70.12073 0l0 17.44358l77.20209 0z" fill-rule="evenodd"/><path fill="#fce5cd" d="m262.69946 104.16273l0 -57.167976l29.532806 0l1.4986877 -2.5958023l0 -10.186352l1.7821655 0l1.5538025 -2.6902866l0 -11.469816l-6.734894 0l0 -4.8372707l-2.0734863 -2.0708666l-29.532837 0l-1.6929016 -2.931758l-3.8346405 0l-1.9711304 -3.417323l-4.0734863 0l-1.6719208 2.8976374l0 9.322836l7.8897552 0l0 5.524933l-10.535431 0l0 11.57218l6.7375336 0l0 10.191601l-6.5643005 0l0 47.322834l13.125977 0l0 10.706039z" fill-rule="evenodd"/><path stroke="#000000" stroke-width="1.0" stroke-linejoin="round" stroke-linecap="butt" d="m262.69946 104.16273l0 -57.167976l29.532806 0l1.4986877 -2.5958023l0 -10.186352l1.7821655 0l1.5538025 -2.6902866l0 -11.469816l-6.734894 0l0 -4.8372707l-2.0734863 -2.0708666l-29.532837 0l-1.6929016 -2.931758l-3.8346405 0l-1.9711304 -3.417323l-4.0734863 0l-1.6719208 2.8976374l0 9.322836l7.8897552 0l0 5.524933l-10.535431 0l0 11.57218l6.7375336 0l0 10.191601l-6.5643005 0l0 47.322834l13.125977 0l0 10.706039z" fill-rule="evenodd"/><path fill="#b4a7d6" d="m249.0538 36.80315l-6.0446167 0l0 8.6377945l6.0446167 0z" fill-rule="evenodd"/><path stroke="#000000" stroke-width="1.0" stroke-linejoin="round" stroke-linecap="butt" d="m249.0538 36.80315l-6.0446167 0l0 8.6377945l6.0446167 0z" fill-rule="evenodd"/><path fill="#b4a7d6" d="m245.08267 18.84252l0 -9.3254595l-14.509186 0l0 9.3254595z" fill-rule="evenodd"/><path stroke="#000000" stroke-width="1.0" stroke-linejoin="round" stroke-linecap="butt" d="m245.08267 18.84252l0 -9.3254595l-14.509186 0l0 9.3254595z" fill-rule="evenodd"/><path fill="#000000" fill-opacity="0.0" d="m237.82808 18.84252l0 -8.818897" fill-rule="evenodd"/><path stroke="#000000" stroke-width="1.0" stroke-linejoin="round" stroke-linecap="butt" d="m237.82808 18.84252l0 -8.818897" fill-rule="evenodd"/><path fill="#b4a7d6" d="m227.63911 97.944885l0 -2.7637863l0.7926483 -2.9553757l7.669281 0l0 5.719162z" fill-rule="evenodd"/><path stroke="#000000" stroke-width="1.0" stroke-linejoin="round" stroke-linecap="butt" d="m227.63911 97.944885l0 -2.7637863l0.7926483 -2.9553757l7.669281 0l0 5.719162z" fill-rule="evenodd"/><path fill="#b4a7d6" d="m197.24016 24.713911l-6.3884583 0l0 4.6640415l3.1076202 3.1076126l3.280838 0z" fill-rule="evenodd"/><path stroke="#000000" stroke-width="1.0" stroke-linejoin="round" stroke-linecap="butt" d="m197.24016 24.713911l-6.3884583 0l0 4.6640415l3.1076202 3.1076126l3.280838 0z" fill-rule="evenodd"/><path fill="#b4a7d6" d="m167.88058 32.658794l0 -7.771656l-3.627304 0l-1.9265137 3.338583l0 4.433073z" fill-rule="evenodd"/><path stroke="#000000" stroke-width="1.0" stroke-linejoin="round" stroke-linecap="butt" d="m167.88058 32.658794l0 -7.771656l-3.627304 0l-1.9265137 3.338583l0 4.433073z" fill-rule="evenodd"/><path fill="#b4a7d6" d="m143.8727 32.485565l0 -5.698164l-2.7637787 -2.7637787l-3.4540558 0l0 8.291338z" fill-rule="evenodd"/><path stroke="#000000" stroke-width="1.0" stroke-linejoin="round" stroke-linecap="butt" d="m143.8727 32.485565l0 -5.698164l-2.7637787 -2.7637787l-3.4540558 0l0 8.291338z" fill-rule="evenodd"/><path fill="#b4a7d6" d="m237.31102 148.37534l0 -10.535446l5.524933 0l0 10.881897z" fill-rule="evenodd"/><path stroke="#000000" stroke-width="1.0" stroke-linejoin="round" stroke-linecap="butt" d="m237.31102 148.37534l0 -10.535446l5.524933 0l0 10.881897z" fill-rule="evenodd"/><path fill="#b4a7d6" d="m236.6181 149.5853l0 11.398956l13.472443 0l0 -23.317581l-6.2178497 0l0 11.572174z" fill-rule="evenodd"/><path stroke="#000000" stroke-width="1.0" stroke-linejoin="round" stroke-linecap="butt" d="m236.6181 149.5853l0 11.398956l13.472443 0l0 -23.317581l-6.2178497 0l0 11.572174z" fill-rule="evenodd"/><path fill="#000000" fill-opacity="0.0" d="m224.38452 137.39633l0 5.13385" fill-rule="evenodd"/><path stroke="#000000" stroke-width="1.0" stroke-linejoin="round" stroke-linecap="butt" d="m224.38452 137.39633l0 5.13385" fill-rule="evenodd"/><path fill="#000000" fill-opacity="0.0" d="m224.25853 142.53806l-12.598419 0" fill-rule="evenodd"/><path stroke="#000000" stroke-width="1.0" stroke-linejoin="round" stroke-linecap="butt" d="m224.25853 142.53806l-12.598419 0" fill-rule="evenodd"/><path fill="#000000" fill-opacity="0.0" d="m211.66011 142.02362l0 6.2992096" fill-rule="evenodd"/><path stroke="#000000" stroke-width="1.0" stroke-linejoin="round" stroke-linecap="butt" d="m211.66011 142.02362l0 6.2992096" fill-rule="evenodd"/><path fill="#000000" fill-opacity="0.0" d="m237.24016 128.27034l0 -17.480316" fill-rule="evenodd"/><path stroke="#000000" stroke-width="1.0" stroke-linejoin="round" stroke-linecap="butt" d="m237.24016 128.27034l0 -17.480316" fill-rule="evenodd"/><path fill="#000000" fill-opacity="0.0" d="m236.98294 110.79002l-9.763779 0" fill-rule="evenodd"/><path stroke="#000000" stroke-width="1.0" stroke-linejoin="round" stroke-linecap="butt" d="m236.98294 110.79002l-9.763779 0" fill-rule="evenodd"/><path fill="#000000" fill-opacity="0.0" d="m275.79922 139.19423l0 35.62204" fill-rule="evenodd"/><path stroke="#000000" stroke-width="1.0" stroke-linejoin="round" stroke-linecap="butt" d="m275.79922 139.19423l0 35.62204" fill-rule="evenodd"/><path fill="#000000" fill-opacity="0.0" d="m256.51837 154.3622l18.897644 0" fill-rule="evenodd"/><path stroke="#000000" stroke-width="1.0" stroke-linejoin="round" stroke-linecap="butt" d="m256.51837 154.3622l18.897644 0" fill-rule="evenodd"/><path fill="#000000" fill-opacity="0.0" d="m300.99344 139.45145l0 35.2126" fill-rule="evenodd"/><path stroke="#000000" stroke-width="1.0" stroke-linejoin="round" stroke-linecap="butt" d="m300.99344 139.45145l0 35.2126" fill-rule="evenodd"/><path fill="#000000" fill-opacity="0.0" d="m313.97507 139.70866l0 34.708664" fill-rule="evenodd"/><path stroke="#000000" stroke-width="1.0" stroke-linejoin="round" stroke-linecap="butt" d="m313.97507 139.70866l0 34.708664" fill-rule="evenodd"/><path fill="#000000" fill-opacity="0.0" d="m322.97244 139.58005l0 9.763779" fill-rule="evenodd"/><path stroke="#000000" stroke-width="1.0" stroke-linejoin="round" stroke-linecap="butt" d="m322.97244 139.58005l0 9.763779" fill-rule="evenodd"/><path fill="#000000" fill-opacity="0.0" d="m314.23227 149.6063l51.149628 0" fill-rule="evenodd"/><path stroke="#000000" stroke-width="1.0" stroke-linejoin="round" stroke-linecap="butt" d="m314.23227 149.6063l51.149628 0" fill-rule="evenodd"/><path fill="#000000" fill-opacity="0.0" d="m330.94095 139.19423l0 9.889755" fill-rule="evenodd"/><path stroke="#000000" stroke-width="1.0" stroke-linejoin="round" stroke-linecap="butt" d="m330.94095 139.19423l0 9.889755" fill-rule="evenodd"/><path fill="#000000" fill-opacity="0.0" d="m334.02493 139.58005l0 4.2519684" fill-rule="evenodd"/><path stroke="#000000" stroke-width="1.0" stroke-linejoin="round" stroke-linecap="butt" d="m334.02493 139.58005l0 4.2519684" fill-rule="evenodd"/><path fill="#000000" fill-opacity="0.0" d="m334.02493 143.82152l5.669281 0" fill-rule="evenodd"/><path stroke="#000000" stroke-width="1.0" stroke-linejoin="round" stroke-linecap="butt" d="m334.02493 143.82152l5.669281 0" fill-rule="evenodd"/><path fill="#000000" fill-opacity="0.0" d="m353.6916 137.52493l11.968506 0" fill-rule="evenodd"/><path stroke="#000000" stroke-width="1.0" stroke-linejoin="round" stroke-linecap="butt" d="m353.6916 137.52493l11.968506 0" fill-rule="evenodd"/><path fill="#000000" fill-opacity="0.0" d="m353.6916 130.9685l11.559082 0" fill-rule="evenodd"/><path stroke="#000000" stroke-width="1.0" stroke-linejoin="round" stroke-linecap="butt" d="m353.6916 130.9685l11.559082 0" fill-rule="evenodd"/><path fill="#000000" fill-opacity="0.0" d="m345.98032 124.02887l0 -11.81102" fill-rule="evenodd"/><path stroke="#000000" stroke-width="1.0" stroke-linejoin="round" stroke-linecap="butt" d="m345.98032 124.02887l0 -11.81102" fill-rule="evenodd"/><path fill="#000000" fill-opacity="0.0" d="m345.59448 112.2021l-5.0078735 0" fill-rule="evenodd"/><path stroke="#000000" stroke-width="1.0" stroke-linejoin="round" stroke-linecap="butt" d="m345.59448 112.2021l-5.0078735 0" fill-rule="evenodd"/><path fill="#000000" fill-opacity="0.0" d="m345.72308 111.81628l0 -7.2126007" fill-rule="evenodd"/><path stroke="#000000" stroke-width="1.0" stroke-linejoin="round" stroke-linecap="butt" d="m345.72308 111.81628l0 -7.2126007" fill-rule="evenodd"/><path fill="#000000" fill-opacity="0.0" d="m345.8517 104.61942l16.188965 0" fill-rule="evenodd"/><path stroke="#000000" stroke-width="1.0" stroke-linejoin="round" stroke-linecap="butt" d="m345.8517 104.61942l16.188965 0" fill-rule="evenodd"/><path fill="#000000" fill-opacity="0.0" d="m333.5105 92.666664l-7.0551147 0" fill-rule="evenodd"/><path stroke="#000000" stroke-width="1.0" stroke-linejoin="round" stroke-linecap="butt" d="m333.5105 92.666664l-7.0551147 0" fill-rule="evenodd"/><path fill="#000000" fill-opacity="0.0" d="m333.1273 98.83465l-6.803131 0" fill-rule="evenodd"/><path stroke="#000000" stroke-width="1.0" stroke-linejoin="round" stroke-linecap="butt" d="m333.1273 98.83465l-6.803131 0" fill-rule="evenodd"/><path fill="#000000" fill-opacity="0.0" d="m333.1273 104.87664l-6.4252014 0" fill-rule="evenodd"/><path stroke="#000000" stroke-width="1.0" stroke-linejoin="round" stroke-linecap="butt" d="m333.1273 104.87664l-6.4252014 0" fill-rule="evenodd"/><path fill="#000000" fill-opacity="0.0" d="m332.9987 111.944885l-6.4252014 0" fill-rule="evenodd"/><path stroke="#000000" stroke-width="1.0" stroke-linejoin="round" stroke-linecap="butt" d="m332.9987 111.944885l-6.4252014 0" fill-rule="evenodd"/><path fill="#000000" fill-opacity="0.0" d="m320.14304 129.4252l0 -17.102364" fill-rule="evenodd"/><path stroke="#000000" stroke-width="1.0" stroke-linejoin="round" stroke-linecap="butt" d="m320.14304 129.4252l0 -17.102364" fill-rule="evenodd"/><path fill="#000000" fill-opacity="0.0" d="m307.29004 129.04199l0 -16.850388" fill-rule="evenodd"/><path stroke="#000000" stroke-width="1.0" stroke-linejoin="round" stroke-linecap="butt" d="m307.29004 129.04199l0 -16.850388" fill-rule="evenodd"/><path fill="#000000" fill-opacity="0.0" d="m291.99606 129.17061l0 -6.173233" fill-rule="evenodd"/><path stroke="#000000" stroke-width="1.0" stroke-linejoin="round" stroke-linecap="butt" d="m291.99606 129.17061l0 -6.173233" fill-rule="evenodd"/><path fill="#000000" fill-opacity="0.0" d="m291.86746 123.0l-10.551178 0" fill-rule="evenodd"/><path stroke="#000000" stroke-width="1.0" stroke-linejoin="round" stroke-linecap="butt" d="m291.86746 123.0l-10.551178 0" fill-rule="evenodd"/><path fill="#000000" fill-opacity="0.0" d="m281.32678 123.0l0 -10.267715" fill-rule="evenodd"/><path stroke="#000000" stroke-width="1.0" stroke-linejoin="round" stroke-linecap="butt" d="m281.32678 123.0l0 -10.267715" fill-rule="evenodd"/><path fill="#000000" fill-opacity="0.0" d="m275.4134 129.17061l0 -16.850395" fill-rule="evenodd"/><path stroke="#000000" stroke-width="1.0" stroke-linejoin="round" stroke-linecap="butt" d="m275.4134 129.17061l0 -16.850395" fill-rule="evenodd"/><path fill="#000000" fill-opacity="0.0" d="m262.8176 129.4252l0 -11.811028" fill-rule="evenodd"/><path stroke="#000000" stroke-width="1.0" stroke-linejoin="round" stroke-linecap="butt" d="m262.8176 129.4252l0 -11.811028" fill-rule="evenodd"/><path fill="#000000" fill-opacity="0.0" d="m262.9462 117.72966l-6.299225 0" fill-rule="evenodd"/><path stroke="#000000" stroke-width="1.0" stroke-linejoin="round" stroke-linecap="butt" d="m262.9462 117.72966l-6.299225 0" fill-rule="evenodd"/><path fill="#000000" fill-opacity="0.0" d="m236.08267 102.94751l-8.881882 0" fill-rule="evenodd"/><path stroke="#000000" stroke-width="1.0" stroke-linejoin="round" stroke-linecap="butt" d="m236.08267 102.94751l-8.881882 0" fill-rule="evenodd"/><path fill="#000000" fill-opacity="0.0" d="m249.45013 110.4042l-13.102371 0" fill-rule="evenodd"/><path stroke="#000000" stroke-width="1.0" stroke-linejoin="round" stroke-linecap="butt" d="m249.45013 110.4042l-13.102371 0" fill-rule="evenodd"/><path fill="#000000" fill-opacity="0.0" d="m249.57874 125.95538l-11.81102 0" fill-rule="evenodd"/><path stroke="#000000" stroke-width="1.0" stroke-linejoin="round" stroke-linecap="butt" d="m249.57874 125.95538l-11.81102 0" fill-rule="evenodd"/><path fill="#000000" fill-opacity="0.0" d="m244.1798 126.2126l0 2.582672" fill-rule="evenodd"/><path stroke="#000000" stroke-width="1.0" stroke-linejoin="round" stroke-linecap="butt" d="m244.1798 126.2126l0 2.582672" fill-rule="evenodd"/><path fill="#000000" fill-opacity="0.0" d="m262.56036 101.27821l-5.9212646 0" fill-rule="evenodd"/><path stroke="#000000" stroke-width="1.0" stroke-linejoin="round" stroke-linecap="butt" d="m262.56036 101.27821l-5.9212646 0" fill-rule="evenodd"/><path fill="#000000" fill-opacity="0.0" d="m262.56036 95.10761l-6.2991943 0" fill-rule="evenodd"/><path stroke="#000000" stroke-width="1.0" stroke-linejoin="round" stroke-linecap="butt" d="m262.56036 95.10761l-6.2991943 0" fill-rule="evenodd"/><path fill="#000000" fill-opacity="0.0" d="m262.68896 71.19948l-19.275574 0" fill-rule="evenodd"/><path stroke="#000000" stroke-width="1.0" stroke-linejoin="round" stroke-linecap="butt" d="m262.68896 71.19948l-19.275574 0" fill-rule="evenodd"/><path fill="#000000" fill-opacity="0.0" d="m249.19292 46.3937l15.0550995 0.12598419" fill-rule="evenodd"/><path stroke="#000000" stroke-width="1.0" stroke-linejoin="round" stroke-linecap="butt" d="m249.19292 46.3937l15.0550995 0.12598419" fill-rule="evenodd"/><path fill="#000000" fill-opacity="0.0" d="m236.08267 71.32809l-16.314957 0" fill-rule="evenodd"/><path stroke="#000000" stroke-width="1.0" stroke-linejoin="round" stroke-linecap="butt" d="m236.08267 71.32809l-16.314957 0" fill-rule="evenodd"/><path fill="#000000" fill-opacity="0.0" d="m248.03543 25.312336l0 10.551182" fill-rule="evenodd"/><path stroke="#000000" stroke-width="1.0" stroke-linejoin="round" stroke-linecap="butt" d="m248.03543 25.312336l0 10.551182" fill-rule="evenodd"/><path fill="#000000" fill-opacity="0.0" d="m248.42126 33.154854l-5.1338654 0" fill-rule="evenodd"/><path stroke="#000000" stroke-width="1.0" stroke-linejoin="round" stroke-linecap="butt" d="m248.42126 33.154854l-5.1338654 0" fill-rule="evenodd"/><path fill="#000000" fill-opacity="0.0" d="m247.77821 29.939632l-4.6299133 0" fill-rule="evenodd"/><path stroke="#000000" stroke-width="1.0" stroke-linejoin="round" stroke-linecap="butt" d="m247.77821 29.939632l-4.6299133 0" fill-rule="evenodd"/><path fill="#000000" fill-opacity="0.0" d="m252.79134 18.887138l0 -8.47244" fill-rule="evenodd"/><path stroke="#000000" stroke-width="1.0" stroke-linejoin="round" stroke-linecap="butt" d="m252.79134 18.887138l0 -8.47244" fill-rule="evenodd"/><path fill="#000000" fill-opacity="0.0" d="m253.94882 24.543306l17.102356 0" fill-rule="evenodd"/><path stroke="#000000" stroke-width="1.0" stroke-linejoin="round" stroke-linecap="butt" d="m253.94882 24.543306l17.102356 0" fill-rule="evenodd"/><path fill="#000000" fill-opacity="0.0" d="m271.1719 24.800526l0 21.732285" fill-rule="evenodd"/><path stroke="#000000" stroke-width="1.0" stroke-linejoin="round" stroke-linecap="butt" d="m271.1719 24.800526l0 21.732285" fill-rule="evenodd"/><path fill="#000000" fill-opacity="0.0" d="m224.12993 18.629921l0 -7.338582" fill-rule="evenodd"/><path stroke="#000000" stroke-width="1.0" stroke-linejoin="round" stroke-linecap="butt" d="m224.12993 18.629921l0 -7.338582" fill-rule="evenodd"/><path fill="#000000" fill-opacity="0.0" d="m221.42914 24.15748l-20.692917 0" fill-rule="evenodd"/><path stroke="#000000" stroke-width="1.0" stroke-linejoin="round" stroke-linecap="butt" d="m221.42914 24.15748l-20.692917 0" fill-rule="evenodd"/><path fill="#000000" fill-opacity="0.0" d="m236.4685 36.110237l-17.102371 0" fill-rule="evenodd"/><path stroke="#000000" stroke-width="1.0" stroke-linejoin="round" stroke-linecap="butt" d="m236.4685 36.110237l-17.102371 0" fill-rule="evenodd"/><path fill="#000000" fill-opacity="0.0" d="m219.50262 35.85302l0 13.51181" fill-rule="evenodd"/><path stroke="#000000" stroke-width="1.0" stroke-linejoin="round" stroke-linecap="butt" d="m219.50262 35.85302l0 13.51181" fill-rule="evenodd"/><path fill="#000000" fill-opacity="0.0" d="m161.27428 32.897636l-11.055115 0" fill-rule="evenodd"/><path stroke="#000000" stroke-width="1.0" stroke-linejoin="round" stroke-linecap="butt" d="m161.27428 32.897636l-11.055115 0" fill-rule="evenodd"/><path fill="#000000" fill-opacity="0.0" d="m154.07742 30.068241l0 2.4566917" fill-rule="evenodd"/><path stroke="#000000" stroke-width="1.0" stroke-linejoin="round" stroke-linecap="butt" d="m154.07742 30.068241l0 2.4566917" fill-rule="evenodd"/><path fill="#000000" fill-opacity="0.0" d="m158.3189 30.068241l0 2.3307076" fill-rule="evenodd"/><path stroke="#000000" stroke-width="1.0" stroke-linejoin="round" stroke-linecap="butt" d="m158.3189 30.068241l0 2.3307076" fill-rule="evenodd"/><path fill="#000000" fill-opacity="0.0" d="m171.0433 41.380577l-19.905502 0" fill-rule="evenodd"/><path stroke="#000000" stroke-width="1.0" stroke-linejoin="round" stroke-linecap="butt" d="m171.0433 41.380577l-19.905502 0" fill-rule="evenodd"/><path fill="#000000" fill-opacity="0.0" d="m171.17192 55.262466l-20.314972 0" fill-rule="evenodd"/><path stroke="#000000" stroke-width="1.0" stroke-linejoin="round" stroke-linecap="butt" d="m171.17192 55.262466l-20.314972 0" fill-rule="evenodd"/><path fill="#000000" fill-opacity="0.0" d="m171.17192 62.973755l-20.692917 0" fill-rule="evenodd"/><path stroke="#000000" stroke-width="1.0" stroke-linejoin="round" stroke-linecap="butt" d="m171.17192 62.973755l-20.692917 0" fill-rule="evenodd"/><path fill="#000000" fill-opacity="0.0" d="m171.30052 73.12861l-20.440948 0" fill-rule="evenodd"/><path stroke="#000000" stroke-width="1.0" stroke-linejoin="round" stroke-linecap="butt" d="m171.30052 73.12861l-20.440948 0" fill-rule="evenodd"/><path fill="#000000" fill-opacity="0.0" d="m149.45013 79.93964l0 4.125984" fill-rule="evenodd"/><path stroke="#000000" stroke-width="1.0" stroke-linejoin="round" stroke-linecap="butt" d="m149.45013 79.93964l0 4.125984" fill-rule="evenodd"/><path fill="#000000" fill-opacity="0.0" d="m143.66536 72.22835l-9.51181 0" fill-rule="evenodd"/><path stroke="#000000" stroke-width="1.0" stroke-linejoin="round" stroke-linecap="butt" d="m143.66536 72.22835l-9.51181 0" fill-rule="evenodd"/><path fill="#000000" fill-opacity="0.0" d="m143.40814 64.77428l-9.133865 0" fill-rule="evenodd"/><path stroke="#000000" stroke-width="1.0" stroke-linejoin="round" stroke-linecap="butt" d="m143.40814 64.77428l-9.133865 0" fill-rule="evenodd"/><path fill="#000000" fill-opacity="0.0" d="m143.66536 46.26509l-9.51181 0" fill-rule="evenodd"/><path stroke="#000000" stroke-width="1.0" stroke-linejoin="round" stroke-linecap="butt" d="m143.66536 46.26509l-9.51181 0" fill-rule="evenodd"/><path fill="#000000" fill-opacity="0.0" d="m163.84645 18.372704l0 -3.8425198" fill-rule="evenodd"/><path stroke="#000000" stroke-width="1.0" stroke-linejoin="round" stroke-linecap="butt" d="m163.84645 18.372704l0 -3.8425198" fill-rule="evenodd"/><path fill="#000000" fill-opacity="0.0" d="m141.61023 18.372704l0 -4.755906" fill-rule="evenodd"/><path stroke="#000000" stroke-width="1.0" stroke-linejoin="round" stroke-linecap="butt" d="m141.61023 18.372704l0 -4.755906" fill-rule="evenodd"/><path fill="#000000" fill-opacity="0.0" d="m370.51874 195.46437l0 -195.30708" fill-rule="evenodd"/><path stroke="#000000" stroke-width="1.0" stroke-linejoin="round" stroke-linecap="butt" d="m370.51874 195.46437l0 -195.30708" fill-rule="evenodd"/><path fill="#000000" fill-opacity="0.0" d="m370.62897 0.2885152l-370.58267 0" fill-rule="evenodd"/><path stroke="#000000" stroke-width="1.0" stroke-linejoin="round" stroke-linecap="butt" d="m370.62897 0.2885152l-370.58267 0" fill-rule="evenodd"/><path fill="#000000" fill-opacity="0.0" d="m-9.39895E-4 194.96043l0 -194.96063" fill-rule="evenodd"/><path stroke="#000000" stroke-width="1.0" stroke-linejoin="round" stroke-linecap="butt" d="m-9.39895E-4 194.96043l0 -194.96063" fill-rule="evenodd"/><path fill="#000000" fill-opacity="0.0" d="m370.62897 195.08641l-370.58267 0" fill-rule="evenodd"/><path stroke="#000000" stroke-width="1.0" stroke-linejoin="round" stroke-linecap="butt" d="m370.62897 195.08641l-370.58267 0" fill-rule="evenodd"/></g></svg>
