<svg version="1.1" viewBox="0.0 0.0 370.0 195.0" fill="none" stroke="none" stroke-linecap="square" stroke-miterlimit="10" xmlns:xlink="http://www.w3.org/1999/xlink" xmlns="http://www.w3.org/2000/svg"><clipPath id="p.0"><path d="m0 0l960.0 0l0 720.0l-960.0 0l0 -720.0z" clip-rule="nonzero"/></clipPath><g clip-path="url(#p.0)"><path fill="#000000" fill-opacity="0.0" d="m0 0l960.0 0l0 720.0l-960.0 0z" fill-rule="evenodd"/><path fill="#c9daf8" d="m42.108925 181.3189l0 -8.393692l-13.587927 0l0 -30.53543l61.790024 0l0 3.6771545l13.989502 0l5.0813675 -0.12335205l-0.21260071 -4.496063l34.04725 -0.32284546l-0.21522522 22.05513l0 2.2493439l-0.013122559 1.1810913l0 2.876648l21.422577 0l0 -2.7952728l-17.745407 0l0 -18.944885l3.9973755 0l0 -6.876648l103.1181 0l0.24934387 -115.80577l-6.9606323 0l-0.16271973 108.93176l-99.2021 0l0 -18.703415l1.5144348 -5.656166l0 -79.396324l7.199478 0l8.994751 -5.191601l120.34122 0l0 -4.7217865l-120.863525 0l-7.433075 4.29134l-7.0341187 0l-8.288712 -4.7847767l-2.902893 0l0 3.4514427l3.6771698 3.677166l0 65.7874l0 21.981628l0 20.065613l-118.86615 0l0 46.761154z" fill-rule="evenodd"/><path stroke="#000000" stroke-width="1.0" stroke-linejoin="round" stroke-linecap="butt" d="m42.108925 181.3189l0 -8.393692l-13.587927 0l0 -30.53543l61.790024 0l0 3.6771545l13.989502 0l5.0813675 -0.12335205l-0.21260071 -4.496063l34.04725 -0.32284546l-0.21522522 22.05513l0 2.2493439l-0.013122559 1.1810913l0 2.876648l21.422577 0l0 -2.7952728l-17.745407 0l0 -18.944885l3.9973755 0l0 -6.876648l103.1181 0l0.24934387 -115.80577l-6.9606323 0l-0.16271973 108.93176l-99.2021 0l0 -18.703415l1.5144348 -5.656166l0 -79.396324l7.199478 0l8.994751 -5.191601l120.34122 0l0 -4.7217865l-120.863525 0l-7.433075 4.29134l-7.0341187 0l-8.288712 -4.7847767l-2.902893 0l0 3.4514427l3.6771698 3.677166l0 65.7874l0 21.981628l0 20.065613l-118.86615 0l0 46.761154z" fill-rule="evenodd"/><path fill="#c9daf8" d="m143.00131 166.1798l0 -2.7847748l-27.19423 0l0 6.853012l-8.564301 0l0 -6.637802l2.5695496 0l0 -17.666656l-5.461937 0l0 29.335953l9.314957 0l0 2.9973755l9.742783 0l0 -11.776901z" fill-rule="evenodd"/><path stroke="#000000" stroke-width="1.0" stroke-linejoin="round" stroke-linecap="butt" d="m143.00131 166.1798l0 -2.7847748l-27.19423 0l0 6.853012l-8.564301 0l0 -6.637802l2.5695496 0l0 -17.666656l-5.461937 0l0 29.335953l9.314957 0l0 2.9973755l9.742783 0l0 -11.776901z" fill-rule="evenodd"/><path fill="#000000" fill-opacity="0.0" d="m143.10892 163.93045l0 1.826767" fill-rule="evenodd"/><path stroke="#c9daf8" stroke-width="2.0" stroke-linejoin="round" stroke-linecap="butt" d="m143.10892 163.93045l0 1.826767" fill-rule="evenodd"/><path fill="#000000" fill-opacity="0.0" d="m104.99344 145.83595l3.9685059 0.12599182" fill-rule="evenodd"/><path stroke="#c9daf8" stroke-width="2.0" stroke-linejoin="round" stroke-linecap="butt" d="m104.99344 145.83595l3.9685059 0.12599182" fill-rule="evenodd"/><path fill="#000000" fill-opacity="0.0" d="m247.7126 25.064304l5.795273 0" fill-rule="evenodd"/><path stroke="#c9daf8" stroke-width="2.0" stroke-linejoin="round" stroke-linecap="butt" d="m247.7126 25.064304l5.795273 0" fill-rule="evenodd"/><path fill="#fce5cd" d="m42.57349 172.17455l-13.383202 0l0 -29.443573l22.377953 0l0 39.40158l-8.244095 0l0 5.244095l-10.6010475 0l0 -5.1391144l9.742779 0z" fill-rule="evenodd"/><path stroke="#000000" stroke-width="1.0" stroke-linejoin="round" stroke-linecap="butt" d="m42.57349 172.17455l-13.383202 0l0 -29.443573l22.377953 0l0 39.40158l-8.244095 0l0 5.244095l-10.6010475 0l0 -5.1391144l9.742779 0z" fill-rule="evenodd"/><path fill="#fce5cd" d="m23.515749 172.60236l-15.417324 0l0 -51.926506l40.79265 0l0 -5.3543243l93.57481 0l0 18.737526l-118.950134 0z" fill-rule="evenodd"/><path stroke="#000000" stroke-width="1.0" stroke-linejoin="round" stroke-linecap="butt" d="m23.515749 172.60236l-15.417324 0l0 -51.926506l40.79265 0l0 -5.3543243l93.57481 0l0 18.737526l-118.950134 0z" fill-rule="evenodd"/><path fill="#fce5cd" d="m90.32415 146.58661l0 34.367462l18.737526 0l0 1.9265137l15.5249405 0l0 -2.5695648l18.30709 0l0 -1.8188934l28.803146 0l0 -11.244095l-6.6404266 0l0 2.7847748l-22.48294 0l0 -3.2126007l-18.522308 0l0 11.776901l-10.813644 0l0 -2.67453l-9.207352 0l0 -29.335968z" fill-rule="evenodd"/><path stroke="#000000" stroke-width="1.0" stroke-linejoin="round" stroke-linecap="butt" d="m90.32415 146.58661l0 34.367462l18.737526 0l0 1.9265137l15.5249405 0l0 -2.5695648l18.30709 0l0 -1.8188934l28.803146 0l0 -11.244095l-6.6404266 0l0 2.7847748l-22.48294 0l0 -3.2126007l-18.522308 0l0 11.776901l-10.813644 0l0 -2.67453l-9.207352 0l0 -29.335968z" fill-rule="evenodd"/><path fill="#fce5cd" d="m110.45276 163.82283l0 -17.236221l0 -4.3910675l32.228348 0l0 20.771652l-27.089241 0l0 7.065613l-7.708664 0l0 -5.994751z" fill-rule="evenodd"/><path stroke="#000000" stroke-width="1.0" stroke-linejoin="round" stroke-linecap="butt" d="m110.45276 163.82283l0 -17.236221l0 -4.3910675l32.228348 0l0 20.771652l-27.089241 0l0 7.065613l-7.708664 0l0 -5.994751z" fill-rule="evenodd"/><path fill="#fce5cd" d="m171.80183 166.28477l-24.40944 0l0 -17.986877l3.853012 0l0 -6.8503876l12.740158 0l0 5.994751l8.45932 0l0 -6.102371l68.950134 0l0 12.312347l-69.698166 0z" fill-rule="evenodd"/><path stroke="#000000" stroke-width="1.0" stroke-linejoin="round" stroke-linecap="butt" d="m171.80183 166.28477l-24.40944 0l0 -17.986877l3.853012 0l0 -6.8503876l12.740158 0l0 5.994751l8.45932 0l0 -6.102371l68.950134 0l0 12.312347l-69.698166 0z" fill-rule="evenodd"/><path fill="#b4a7d6" d="m172.01706 141.33989l0 5.5669403l-7.388443 0l0 -5.45932z" fill-rule="evenodd"/><path stroke="#000000" stroke-width="1.0" stroke-linejoin="round" stroke-linecap="butt" d="m172.01706 141.33989l0 5.5669403l-7.388443 0l0 -5.45932z" fill-rule="evenodd"/><path fill="#fce5cd" d="m235.18504 180.31102l0 -26.123352l6.9606323 0l0 -12.740158l12.419937 0l0 -26.981628l68.32022 0l0 -27.020996l34.821503 0l0 27.062988l3.5879517 0l0 39.669296l-25.120758 0l0 26.769028z" fill-rule="evenodd"/><path stroke="#000000" stroke-width="1.0" stroke-linejoin="round" stroke-linecap="butt" d="m235.18504 180.31102l0 -26.123352l6.9606323 0l0 -12.740158l12.419937 0l0 -26.981628l68.32022 0l0 -27.020996l34.821503 0l0 27.062988l3.5879517 0l0 39.669296l-25.120758 0l0 26.769028z" fill-rule="evenodd"/><path fill="#fce5cd" d="m254.50525 108.1063l6.4986877 0l0 -59.265095l27.15747 0l2.9107666 -2.9081345l0 -10.863518l3.2493591 -3.2493439l0 -8.391075l-1.6299438 -2.8241482l-4.3359375 0l0 -4.740157l-2.6194458 -2.619422l-28.32019 0l-1.7375336 -3.010499l-4.5669403 0l-1.5196838 -2.632546l-4.301834 0l-1.6377869 2.8346457l0 9.307087l42.66667 0l0 5.8188972l-31.522324 0z" fill-rule="evenodd"/><path stroke="#000000" stroke-width="1.0" stroke-linejoin="round" stroke-linecap="butt" d="m254.50525 108.1063l6.4986877 0l0 -59.265095l27.15747 0l2.9107666 -2.9081345l0 -10.863518l3.2493591 -3.2493439l0 -8.391075l-1.6299438 -2.8241482l-4.3359375 0l0 -4.740157l-2.6194458 -2.619422l-28.32019 0l-1.7375336 -3.010499l-4.5669403 0l-1.5196838 -2.632546l-4.301834 0l-1.6377869 2.8346457l0 9.307087l42.66667 0l0 5.8188972l-31.522324 0z" fill-rule="evenodd"/><path fill="#b4a7d6" d="m243.06168 19.841208l0 -9.312336l-11.931747 0l-1.9370117 3.3569555l0 5.9553804z" fill-rule="evenodd"/><path stroke="#000000" stroke-width="1.0" stroke-linejoin="round" stroke-linecap="butt" d="m243.06168 19.841208l0 -9.312336l-11.931747 0l-1.9370117 3.3569555l0 5.9553804z" fill-rule="evenodd"/><path fill="#fce5cd" d="m228.80183 19.744095l0 -7.5643044l-29.291336 0l-2.2257233 3.8556423l0 3.708662z" fill-rule="evenodd"/><path stroke="#000000" stroke-width="1.0" stroke-linejoin="round" stroke-linecap="butt" d="m228.80183 19.744095l0 -7.5643044l-29.291336 0l-2.2257233 3.8556423l0 3.708662z" fill-rule="evenodd"/><path fill="#fce5cd" d="m191.46063 19.744095l0 -3.4908142l-27.254593 0l0 -8.535433l-22.601059 0l0 8.826771l-20.07611 0l0 8.244095l17.26509 0l0 -5.3359585l3.6850433 0l8.125977 4.692915l6.908142 0l7.401581 -4.2729664z" fill-rule="evenodd"/><path stroke="#000000" stroke-width="1.0" stroke-linejoin="round" stroke-linecap="butt" d="m191.46063 19.744095l0 -3.4908142l-27.254593 0l0 -8.535433l-22.601059 0l0 8.826771l-20.07611 0l0 8.244095l17.26509 0l0 -5.3359585l3.6850433 0l8.125977 4.692915l6.908142 0l7.401581 -4.2729664z" fill-rule="evenodd"/><path fill="#b4a7d6" d="m139.66536 24.788713l2.5223083 2.5223103l0 6.787403l-3.6850433 0l0 -8.341209z" fill-rule="evenodd"/><path stroke="#000000" stroke-width="1.0" stroke-linejoin="round" stroke-linecap="butt" d="m139.66536 24.788713l2.5223083 2.5223103l0 6.787403l-3.6850433 0l0 -8.341209z" fill-rule="evenodd"/><path fill="#fce5cd" d="m142.57611 34.778214l-7.761154 0l0 52.860893l7.5669403 0z" fill-rule="evenodd"/><path stroke="#000000" stroke-width="1.0" stroke-linejoin="round" stroke-linecap="butt" d="m142.57611 34.778214l-7.761154 0l0 52.860893l7.5669403 0z" fill-rule="evenodd"/><path fill="#fce5cd" d="m150.14043 87.34777l21.629913 0l0 -52.860893l-10.280838 0l0 -6.401575l-4.5957947 2.6535435l-6.94751 0z" fill-rule="evenodd"/><path stroke="#000000" stroke-width="1.0" stroke-linejoin="round" stroke-linecap="butt" d="m150.14043 87.34777l21.629913 0l0 -52.860893l-10.280838 0l0 -6.401575l-4.5957947 2.6535435l-6.94751 0z" fill-rule="evenodd"/><path fill="#b4a7d6" d="m162.26378 33.807087l0 -6.110237l3.4724426 -2.005249l2.2519684 0l0 8.115486z" fill-rule="evenodd"/><path stroke="#000000" stroke-width="1.0" stroke-linejoin="round" stroke-linecap="butt" d="m162.26378 33.807087l0 -6.110237l3.4724426 -2.005249l2.2519684 0l0 8.115486z" fill-rule="evenodd"/><path fill="#b4a7d6" d="m191.1693 25.660105l0 6.401575l1.8293915 3.1679802l4.6692963 0l0 -9.569555z" fill-rule="evenodd"/><path stroke="#000000" stroke-width="1.0" stroke-linejoin="round" stroke-linecap="butt" d="m191.1693 25.660105l0 6.401575l1.8293915 3.1679802l4.6692963 0l0 -9.569555z" fill-rule="evenodd"/><path fill="#fce5cd" d="m198.34776 25.562992l0 10.186352l-2.9107513 0l0 9.698162l2.2309723 3.8635178l27.448807 0l0 58.115482l21.24147 0l0 -58.39107l-6.5957947 0l0 -11.249344l6.887146 0l0 -12.320211z" fill-rule="evenodd"/><path stroke="#000000" stroke-width="1.0" stroke-linejoin="round" stroke-linecap="butt" d="m198.34776 25.562992l0 10.186352l-2.9107513 0l0 9.698162l2.2309723 3.8635178l27.448807 0l0 58.115482l21.24147 0l0 -58.39107l-6.5957947 0l0 -11.249344l6.887146 0l0 -12.320211z" fill-rule="evenodd"/><path fill="#b4a7d6" d="m240.53937 38.366142l0 10.089237l6.2073517 0l0 -9.895012z" fill-rule="evenodd"/><path stroke="#000000" stroke-width="1.0" stroke-linejoin="round" stroke-linecap="butt" d="m240.53937 38.366142l0 10.089237l6.2073517 0l0 -9.895012z" fill-rule="evenodd"/><path fill="#fce5cd" d="m246.35826 133.32414l0 -19.107605l-97.47768 0l-0.37271118 1.3884506l0 18.01049z" fill-rule="evenodd"/><path stroke="#000000" stroke-width="1.0" stroke-linejoin="round" stroke-linecap="butt" d="m246.35826 133.32414l0 -19.107605l-97.47768 0l-0.37271118 1.3884506l0 18.01049z" fill-rule="evenodd"/><path fill="#000000" fill-opacity="0.0" d="m43.195538 173.04855l8.629921 0" fill-rule="evenodd"/><path stroke="#000000" stroke-width="1.0" stroke-linejoin="round" stroke-linecap="butt" d="m43.195538 173.04855l8.629921 0" fill-rule="evenodd"/><path fill="#000000" fill-opacity="0.0" d="m34.38714 172.18504l0 -18.141739" fill-rule="evenodd"/><path stroke="#000000" stroke-width="1.0" stroke-linejoin="round" stroke-linecap="butt" d="m34.38714 172.18504l0 -18.141739" fill-rule="evenodd"/><path fill="#000000" fill-opacity="0.0" d="m34.040684 154.04855l17.795273 0" fill-rule="evenodd"/><path stroke="#000000" stroke-width="1.0" stroke-linejoin="round" stroke-linecap="butt" d="m34.040684 154.04855l17.795273 0" fill-rule="evenodd"/><path fill="#000000" fill-opacity="0.0" d="m34.733597 161.30315l-5.1968517 0" fill-rule="evenodd"/><path stroke="#000000" stroke-width="1.0" stroke-linejoin="round" stroke-linecap="butt" d="m34.733597 161.30315l-5.1968517 0" fill-rule="evenodd"/><path fill="#000000" fill-opacity="0.0" d="m35.940945 145.24016l-6.740158 0" fill-rule="evenodd"/><path stroke="#000000" stroke-width="1.0" stroke-linejoin="round" stroke-linecap="butt" d="m35.940945 145.24016l-6.740158 0" fill-rule="evenodd"/><path fill="#000000" fill-opacity="0.0" d="m36.114174 142.64961l0 2.7716522" fill-rule="evenodd"/><path stroke="#000000" stroke-width="1.0" stroke-linejoin="round" stroke-linecap="butt" d="m36.114174 142.64961l0 2.7716522" fill-rule="evenodd"/><path fill="#000000" fill-opacity="0.0" d="m23.505249 165.79396l-15.181102 0" fill-rule="evenodd"/><path stroke="#000000" stroke-width="1.0" stroke-linejoin="round" stroke-linecap="butt" d="m23.505249 165.79396l-15.181102 0" fill-rule="evenodd"/><path fill="#000000" fill-opacity="0.0" d="m23.678478 154.22179l-15.212599 0" fill-rule="evenodd"/><path stroke="#000000" stroke-width="1.0" stroke-linejoin="round" stroke-linecap="butt" d="m23.678478 154.22179l-15.212599 0" fill-rule="evenodd"/><path fill="#000000" fill-opacity="0.0" d="m24.541994 135.9147l-16.22047 0" fill-rule="evenodd"/><path stroke="#000000" stroke-width="1.0" stroke-linejoin="round" stroke-linecap="butt" d="m24.541994 135.9147l-16.22047 0" fill-rule="evenodd"/><path fill="#000000" fill-opacity="0.0" d="m29.206038 133.8412l0 -12.787399" fill-rule="evenodd"/><path stroke="#000000" stroke-width="1.0" stroke-linejoin="round" stroke-linecap="butt" d="m29.206038 133.8412l0 -12.787399" fill-rule="evenodd"/><path fill="#000000" fill-opacity="0.0" d="m36.287403 134.01443l0 -13.133858" fill-rule="evenodd"/><path stroke="#000000" stroke-width="1.0" stroke-linejoin="round" stroke-linecap="butt" d="m36.287403 134.01443l0 -13.133858" fill-rule="evenodd"/><path fill="#000000" fill-opacity="0.0" d="m42.50525 134.70473l0 -13.480316" fill-rule="evenodd"/><path stroke="#000000" stroke-width="1.0" stroke-linejoin="round" stroke-linecap="butt" d="m42.50525 134.70473l0 -13.480316" fill-rule="evenodd"/><path fill="#000000" fill-opacity="0.0" d="m49.757217 134.18767l0 -18.299217" fill-rule="evenodd"/><path stroke="#000000" stroke-width="1.0" stroke-linejoin="round" stroke-linecap="butt" d="m49.757217 134.18767l0 -18.299217" fill-rule="evenodd"/><path fill="#000000" fill-opacity="0.0" d="m90.691605 134.01443l0 -18.29921" fill-rule="evenodd"/><path stroke="#000000" stroke-width="1.0" stroke-linejoin="round" stroke-linecap="butt" d="m90.691605 134.01443l0 -18.29921" fill-rule="evenodd"/><path fill="#000000" fill-opacity="0.0" d="m116.94357 134.18767l0 -18.645676" fill-rule="evenodd"/><path stroke="#000000" stroke-width="1.0" stroke-linejoin="round" stroke-linecap="butt" d="m116.94357 134.18767l0 -18.645676" fill-rule="evenodd"/><path fill="#000000" fill-opacity="0.0" d="m116.080055 163.8937l-5.1653595 0" fill-rule="evenodd"/><path stroke="#000000" stroke-width="1.0" stroke-linejoin="round" stroke-linecap="butt" d="m116.080055 163.8937l-5.1653595 0" fill-rule="evenodd"/><path fill="#000000" fill-opacity="0.0" d="m123.33465 163.37665l0 -15.716537" fill-rule="evenodd"/><path stroke="#000000" stroke-width="1.0" stroke-linejoin="round" stroke-linecap="butt" d="m123.33465 163.37665l0 -15.716537" fill-rule="evenodd"/><path fill="#000000" fill-opacity="0.0" d="m142.84908 147.48688l-32.125977 0" fill-rule="evenodd"/><path stroke="#000000" stroke-width="1.0" stroke-linejoin="round" stroke-linecap="butt" d="m142.84908 147.48688l-32.125977 0" fill-rule="evenodd"/><path fill="#000000" fill-opacity="0.0" d="m121.95145 147.14043l0 -4.8189087" fill-rule="evenodd"/><path stroke="#000000" stroke-width="1.0" stroke-linejoin="round" stroke-linecap="butt" d="m121.95145 147.14043l0 -4.8189087" fill-rule="evenodd"/><path fill="#000000" fill-opacity="0.0" d="m104.6811 175.80971l0 5.0078735" fill-rule="evenodd"/><path stroke="#000000" stroke-width="1.0" stroke-linejoin="round" stroke-linecap="butt" d="m104.6811 175.80971l0 5.0078735" fill-rule="evenodd"/><path fill="#000000" fill-opacity="0.0" d="m114.87008 178.4029l0 4.3149567" fill-rule="evenodd"/><path stroke="#000000" stroke-width="1.0" stroke-linejoin="round" stroke-linecap="butt" d="m114.87008 178.4029l0 4.3149567" fill-rule="evenodd"/><path fill="#000000" fill-opacity="0.0" d="m124.198166 178.74672l0 4.157486" fill-rule="evenodd"/><path stroke="#000000" stroke-width="1.0" stroke-linejoin="round" stroke-linecap="butt" d="m124.198166 178.74672l0 4.157486" fill-rule="evenodd"/><path fill="#000000" fill-opacity="0.0" d="m142.84908 169.42126l0 9.32283" fill-rule="evenodd"/><path stroke="#000000" stroke-width="1.0" stroke-linejoin="round" stroke-linecap="butt" d="m142.84908 169.42126l0 9.32283" fill-rule="evenodd"/><path fill="#000000" fill-opacity="0.0" d="m149.06693 170.11154l0 8.472443" fill-rule="evenodd"/><path stroke="#000000" stroke-width="1.0" stroke-linejoin="round" stroke-linecap="butt" d="m149.06693 170.11154l0 8.472443" fill-rule="evenodd"/><path fill="#000000" fill-opacity="0.0" d="m154.59448 170.11154l0 8.472443" fill-rule="evenodd"/><path stroke="#000000" stroke-width="1.0" stroke-linejoin="round" stroke-linecap="butt" d="m154.59448 170.11154l0 8.472443" fill-rule="evenodd"/><path fill="#000000" fill-opacity="0.0" d="m159.0853 170.28477l0 7.9370117" fill-rule="evenodd"/><path stroke="#000000" stroke-width="1.0" stroke-linejoin="round" stroke-linecap="butt" d="m159.0853 170.28477l0 7.9370117" fill-rule="evenodd"/><path fill="#000000" fill-opacity="0.0" d="m164.43964 169.93832l0 8.629913" fill-rule="evenodd"/><path stroke="#000000" stroke-width="1.0" stroke-linejoin="round" stroke-linecap="butt" d="m164.43964 169.93832l0 8.629913" fill-rule="evenodd"/><path fill="#000000" fill-opacity="0.0" d="m157.18504 141.26903l0 6.047241" fill-rule="evenodd"/><path stroke="#000000" stroke-width="1.0" stroke-linejoin="round" stroke-linecap="butt" d="m157.18504 141.26903l0 6.047241" fill-rule="evenodd"/><path fill="#000000" fill-opacity="0.0" d="m160.29265 141.44226l0 5.7007904" fill-rule="evenodd"/><path stroke="#000000" stroke-width="1.0" stroke-linejoin="round" stroke-linecap="butt" d="m160.29265 141.44226l0 5.7007904" fill-rule="evenodd"/><path fill="#000000" fill-opacity="0.0" d="m164.78346 147.48688l-13.13385 0" fill-rule="evenodd"/><path stroke="#000000" stroke-width="1.0" stroke-linejoin="round" stroke-linecap="butt" d="m164.78346 147.48688l-13.13385 0" fill-rule="evenodd"/><path fill="#000000" fill-opacity="0.0" d="m171.86482 147.14043l0 6.551178" fill-rule="evenodd"/><path stroke="#000000" stroke-width="1.0" stroke-linejoin="round" stroke-linecap="butt" d="m171.86482 147.14043l0 6.551178" fill-rule="evenodd"/><path fill="#000000" fill-opacity="0.0" d="m197.42651 154.04855l0 -7.7795258" fill-rule="evenodd"/><path stroke="#000000" stroke-width="1.0" stroke-linejoin="round" stroke-linecap="butt" d="m197.42651 154.04855l0 -7.7795258" fill-rule="evenodd"/><path fill="#000000" fill-opacity="0.0" d="m197.59973 146.45013l4.314972 0" fill-rule="evenodd"/><path stroke="#000000" stroke-width="1.0" stroke-linejoin="round" stroke-linecap="butt" d="m197.59973 146.45013l4.314972 0" fill-rule="evenodd"/><path fill="#000000" fill-opacity="0.0" d="m202.09055 141.0958l0 5.7007904" fill-rule="evenodd"/><path stroke="#000000" stroke-width="1.0" stroke-linejoin="round" stroke-linecap="butt" d="m202.09055 141.0958l0 5.7007904" fill-rule="evenodd"/><path fill="#000000" fill-opacity="0.0" d="m205.88846 141.61285l0 5.5433197" fill-rule="evenodd"/><path stroke="#000000" stroke-width="1.0" stroke-linejoin="round" stroke-linecap="butt" d="m205.88846 141.61285l0 5.5433197" fill-rule="evenodd"/><path fill="#000000" fill-opacity="0.0" d="m206.06168 147.14043l3.622055 0" fill-rule="evenodd"/><path stroke="#000000" stroke-width="1.0" stroke-linejoin="round" stroke-linecap="butt" d="m206.06168 147.14043l3.622055 0" fill-rule="evenodd"/><path fill="#000000" fill-opacity="0.0" d="m209.68898 147.14043l0 6.204712" fill-rule="evenodd"/><path stroke="#000000" stroke-width="1.0" stroke-linejoin="round" stroke-linecap="butt" d="m209.68898 147.14043l0 6.204712" fill-rule="evenodd"/><path fill="#000000" fill-opacity="0.0" d="m222.47113 141.61285l0 11.559067" fill-rule="evenodd"/><path stroke="#000000" stroke-width="1.0" stroke-linejoin="round" stroke-linecap="butt" d="m222.47113 141.61285l0 11.559067" fill-rule="evenodd"/><path fill="#000000" fill-opacity="0.0" d="m235.07742 141.44226l0 12.4409485" fill-rule="evenodd"/><path stroke="#000000" stroke-width="1.0" stroke-linejoin="round" stroke-linecap="butt" d="m235.07742 141.44226l0 12.4409485" fill-rule="evenodd"/><path fill="#000000" fill-opacity="0.0" d="m166.16667 133.67061l0 -8.28347" fill-rule="evenodd"/><path stroke="#000000" stroke-width="1.0" stroke-linejoin="round" stroke-linecap="butt" d="m166.16667 133.67061l0 -8.28347" fill-rule="evenodd"/><path fill="#000000" fill-opacity="0.0" d="m166.16667 125.55249l7.7795258 0" fill-rule="evenodd"/><path stroke="#000000" stroke-width="1.0" stroke-linejoin="round" stroke-linecap="butt" d="m166.16667 125.55249l7.7795258 0" fill-rule="evenodd"/><path fill="#000000" fill-opacity="0.0" d="m173.76509 133.8412l0 -19.685036" fill-rule="evenodd"/><path stroke="#000000" stroke-width="1.0" stroke-linejoin="round" stroke-linecap="butt" d="m173.76509 133.8412l0 -19.685036" fill-rule="evenodd"/><path fill="#000000" fill-opacity="0.0" d="m197.94357 133.8412l0 -19.52755" fill-rule="evenodd"/><path stroke="#000000" stroke-width="1.0" stroke-linejoin="round" stroke-linecap="butt" d="m197.94357 133.8412l0 -19.52755" fill-rule="evenodd"/><path fill="#000000" fill-opacity="0.0" d="m209.68898 133.8412l0 -19.52755" fill-rule="evenodd"/><path stroke="#000000" stroke-width="1.0" stroke-linejoin="round" stroke-linecap="butt" d="m209.68898 133.8412l0 -19.52755" fill-rule="evenodd"/><path fill="#000000" fill-opacity="0.0" d="m222.12466 133.67061l0 -4.157486" fill-rule="evenodd"/><path stroke="#000000" stroke-width="1.0" stroke-linejoin="round" stroke-linecap="butt" d="m222.12466 133.67061l0 -4.157486" fill-rule="evenodd"/><path fill="#000000" fill-opacity="0.0" d="m246.82283 129.69685l-24.34645 0" fill-rule="evenodd"/><path stroke="#000000" stroke-width="1.0" stroke-linejoin="round" stroke-linecap="butt" d="m246.82283 129.69685l-24.34645 0" fill-rule="evenodd"/><path fill="#000000" fill-opacity="0.0" d="m254.42126 87.38189l6.740143 0" fill-rule="evenodd"/><path stroke="#000000" stroke-width="1.0" stroke-linejoin="round" stroke-linecap="butt" d="m254.42126 87.38189l6.740143 0" fill-rule="evenodd"/><path fill="#000000" fill-opacity="0.0" d="m254.76772 80.64698l6.204727 0" fill-rule="evenodd"/><path stroke="#000000" stroke-width="1.0" stroke-linejoin="round" stroke-linecap="butt" d="m254.76772 80.64698l6.204727 0" fill-rule="evenodd"/><path fill="#000000" fill-opacity="0.0" d="m254.76772 74.08268l6.204727 0" fill-rule="evenodd"/><path stroke="#000000" stroke-width="1.0" stroke-linejoin="round" stroke-linecap="butt" d="m254.76772 74.08268l6.204727 0" fill-rule="evenodd"/><path fill="#000000" fill-opacity="0.0" d="m254.76772 67.520996l6.204727 0" fill-rule="evenodd"/><path stroke="#000000" stroke-width="1.0" stroke-linejoin="round" stroke-linecap="butt" d="m254.76772 67.520996l6.204727 0" fill-rule="evenodd"/><path fill="#000000" fill-opacity="0.0" d="m254.76772 61.30315l6.204727 0" fill-rule="evenodd"/><path stroke="#000000" stroke-width="1.0" stroke-linejoin="round" stroke-linecap="butt" d="m254.76772 61.30315l6.204727 0" fill-rule="evenodd"/><path fill="#000000" fill-opacity="0.0" d="m254.76772 54.39501l6.204727 0" fill-rule="evenodd"/><path stroke="#000000" stroke-width="1.0" stroke-linejoin="round" stroke-linecap="butt" d="m254.76772 54.39501l6.204727 0" fill-rule="evenodd"/><path fill="#000000" fill-opacity="0.0" d="m254.76772 48.177166l10.204727 0" fill-rule="evenodd"/><path stroke="#000000" stroke-width="1.0" stroke-linejoin="round" stroke-linecap="butt" d="m254.76772 48.177166l10.204727 0" fill-rule="evenodd"/><path fill="#000000" fill-opacity="0.0" d="m254.76772 35.56824l14.519699 0" fill-rule="evenodd"/><path stroke="#000000" stroke-width="1.0" stroke-linejoin="round" stroke-linecap="butt" d="m254.76772 35.56824l14.519699 0" fill-rule="evenodd"/><path fill="#000000" fill-opacity="0.0" d="m269.10104 25.725721l0 23.149607" fill-rule="evenodd"/><path stroke="#000000" stroke-width="1.0" stroke-linejoin="round" stroke-linecap="butt" d="m269.10104 25.725721l0 23.149607" fill-rule="evenodd"/><path fill="#000000" fill-opacity="0.0" d="m287.7546 25.379265l0 9.322834" fill-rule="evenodd"/><path stroke="#000000" stroke-width="1.0" stroke-linejoin="round" stroke-linecap="butt" d="m287.7546 25.379265l0 9.322834" fill-rule="evenodd"/><path fill="#000000" fill-opacity="0.0" d="m287.7546 34.534122l3.8110046 0" fill-rule="evenodd"/><path stroke="#000000" stroke-width="1.0" stroke-linejoin="round" stroke-linecap="butt" d="m287.7546 34.534122l3.8110046 0" fill-rule="evenodd"/><path fill="#000000" fill-opacity="0.0" d="m285.85434 25.725721l2.236206 0" fill-rule="evenodd"/><path stroke="#000000" stroke-width="1.0" stroke-linejoin="round" stroke-linecap="butt" d="m285.85434 25.725721l2.236206 0" fill-rule="evenodd"/><path fill="#000000" fill-opacity="0.0" d="m286.37402 20.198162l1.7322693 0" fill-rule="evenodd"/><path stroke="#000000" stroke-width="1.0" stroke-linejoin="round" stroke-linecap="butt" d="m286.37402 20.198162l1.7322693 0" fill-rule="evenodd"/><path fill="#000000" fill-opacity="0.0" d="m263.05643 19.851706l0 -6.3937006" fill-rule="evenodd"/><path stroke="#000000" stroke-width="1.0" stroke-linejoin="round" stroke-linecap="butt" d="m263.05643 19.851706l0 -6.3937006" fill-rule="evenodd"/><path fill="#000000" fill-opacity="0.0" d="m256.8386 20.024935l0 -7.433071" fill-rule="evenodd"/><path stroke="#000000" stroke-width="1.0" stroke-linejoin="round" stroke-linecap="butt" d="m256.8386 20.024935l0 -7.433071" fill-rule="evenodd"/><path fill="#000000" fill-opacity="0.0" d="m250.79396 20.024935l0 -10.015748" fill-rule="evenodd"/><path stroke="#000000" stroke-width="1.0" stroke-linejoin="round" stroke-linecap="butt" d="m250.79396 20.024935l0 -10.015748" fill-rule="evenodd"/><path fill="#000000" fill-opacity="0.0" d="m246.47638 86.17454l-21.259842 0" fill-rule="evenodd"/><path stroke="#000000" stroke-width="1.0" stroke-linejoin="round" stroke-linecap="butt" d="m246.47638 86.17454l-21.259842 0" fill-rule="evenodd"/><path fill="#000000" fill-opacity="0.0" d="m246.99606 69.24803l-21.574799 0" fill-rule="evenodd"/><path stroke="#000000" stroke-width="1.0" stroke-linejoin="round" stroke-linecap="butt" d="m246.99606 69.24803l-21.574799 0" fill-rule="evenodd"/><path fill="#000000" fill-opacity="0.0" d="m246.82283 54.74147l-21.417313 0" fill-rule="evenodd"/><path stroke="#000000" stroke-width="1.0" stroke-linejoin="round" stroke-linecap="butt" d="m246.82283 54.74147l-21.417313 0" fill-rule="evenodd"/><path fill="#000000" fill-opacity="0.0" d="m203.99081 25.379265l0 24.0" fill-rule="evenodd"/><path stroke="#000000" stroke-width="1.0" stroke-linejoin="round" stroke-linecap="butt" d="m203.99081 25.379265l0 24.0" fill-rule="evenodd"/><path fill="#000000" fill-opacity="0.0" d="m225.23228 25.552494l0 23.842518" fill-rule="evenodd"/><path stroke="#000000" stroke-width="1.0" stroke-linejoin="round" stroke-linecap="butt" d="m225.23228 25.552494l0 23.842518" fill-rule="evenodd"/><path fill="#000000" fill-opacity="0.0" d="m240.60498 38.50525l0 -12.944881" fill-rule="evenodd"/><path stroke="#000000" stroke-width="1.0" stroke-linejoin="round" stroke-linecap="butt" d="m240.60498 38.50525l0 -12.944881" fill-rule="evenodd"/><path fill="#000000" fill-opacity="0.0" d="m247.16667 31.250656l-6.3937073 0" fill-rule="evenodd"/><path stroke="#000000" stroke-width="1.0" stroke-linejoin="round" stroke-linecap="butt" d="m247.16667 31.250656l-6.3937073 0" fill-rule="evenodd"/><path fill="#000000" fill-opacity="0.0" d="m246.99606 34.704723l-6.047241 0" fill-rule="evenodd"/><path stroke="#000000" stroke-width="1.0" stroke-linejoin="round" stroke-linecap="butt" d="m246.99606 34.704723l-6.047241 0" fill-rule="evenodd"/><path fill="#000000" fill-opacity="0.0" d="m172.03806 20.541994l0 -4.1574802" fill-rule="evenodd"/><path stroke="#000000" stroke-width="1.0" stroke-linejoin="round" stroke-linecap="butt" d="m172.03806 20.541994l0 -4.1574802" fill-rule="evenodd"/><path fill="#000000" fill-opacity="0.0" d="m164.43964 20.715223l0 -4.503937" fill-rule="evenodd"/><path stroke="#000000" stroke-width="1.0" stroke-linejoin="round" stroke-linecap="butt" d="m164.43964 20.715223l0 -4.503937" fill-rule="evenodd"/><path fill="#000000" fill-opacity="0.0" d="m154.94095 30.733595l0 3.6220493" fill-rule="evenodd"/><path stroke="#000000" stroke-width="1.0" stroke-linejoin="round" stroke-linecap="butt" d="m154.94095 30.733595l0 3.6220493" fill-rule="evenodd"/><path fill="#000000" fill-opacity="0.0" d="m162.36613 34.360893l-12.251968 0" fill-rule="evenodd"/><path stroke="#000000" stroke-width="1.0" stroke-linejoin="round" stroke-linecap="butt" d="m162.36613 34.360893l-12.251968 0" fill-rule="evenodd"/><path fill="#000000" fill-opacity="0.0" d="m172.21129 61.30315l-22.110245 0" fill-rule="evenodd"/><path stroke="#000000" stroke-width="1.0" stroke-linejoin="round" stroke-linecap="butt" d="m172.21129 61.30315l-22.110245 0" fill-rule="evenodd"/><path fill="#000000" fill-opacity="0.0" d="m142.67586 79.956696l-7.590561 0" fill-rule="evenodd"/><path stroke="#000000" stroke-width="1.0" stroke-linejoin="round" stroke-linecap="butt" d="m142.67586 79.956696l-7.590561 0" fill-rule="evenodd"/><path fill="#000000" fill-opacity="0.0" d="m142.84908 72.355644l-7.7795258 0" fill-rule="evenodd"/><path stroke="#000000" stroke-width="1.0" stroke-linejoin="round" stroke-linecap="butt" d="m142.84908 72.355644l-7.7795258 0" fill-rule="evenodd"/><path fill="#000000" fill-opacity="0.0" d="m142.84908 65.103676l-7.5905457 0" fill-rule="evenodd"/><path stroke="#000000" stroke-width="1.0" stroke-linejoin="round" stroke-linecap="butt" d="m142.84908 65.103676l-7.5905457 0" fill-rule="evenodd"/><path fill="#000000" fill-opacity="0.0" d="m142.84908 57.33202l-7.4330597 0" fill-rule="evenodd"/><path stroke="#000000" stroke-width="1.0" stroke-linejoin="round" stroke-linecap="butt" d="m142.84908 57.33202l-7.4330597 0" fill-rule="evenodd"/><path fill="#000000" fill-opacity="0.0" d="m142.50525 49.904198l-7.433075 0" fill-rule="evenodd"/><path stroke="#000000" stroke-width="1.0" stroke-linejoin="round" stroke-linecap="butt" d="m142.50525 49.904198l-7.433075 0" fill-rule="evenodd"/><path fill="#000000" fill-opacity="0.0" d="m142.67586 42.305775l-7.7795258 0" fill-rule="evenodd"/><path stroke="#000000" stroke-width="1.0" stroke-linejoin="round" stroke-linecap="butt" d="m142.67586 42.305775l-7.7795258 0" fill-rule="evenodd"/><path fill="#000000" fill-opacity="0.0" d="m204.33464 20.024935l0 -7.7795277" fill-rule="evenodd"/><path stroke="#000000" stroke-width="1.0" stroke-linejoin="round" stroke-linecap="butt" d="m204.33464 20.024935l0 -7.7795277" fill-rule="evenodd"/><path fill="#000000" fill-opacity="0.0" d="m210.89896 20.198162l0 -7.7795267" fill-rule="evenodd"/><path stroke="#000000" stroke-width="1.0" stroke-linejoin="round" stroke-linecap="butt" d="m210.89896 20.198162l0 -7.7795267" fill-rule="evenodd"/><path fill="#000000" fill-opacity="0.0" d="m216.94357 20.024935l0 -7.5905514" fill-rule="evenodd"/><path stroke="#000000" stroke-width="1.0" stroke-linejoin="round" stroke-linecap="butt" d="m216.94357 20.024935l0 -7.5905514" fill-rule="evenodd"/><path fill="#000000" fill-opacity="0.0" d="m223.50525 20.024935l0 -7.7795277" fill-rule="evenodd"/><path stroke="#000000" stroke-width="1.0" stroke-linejoin="round" stroke-linecap="butt" d="m223.50525 20.024935l0 -7.7795277" fill-rule="evenodd"/><path fill="#000000" fill-opacity="0.0" d="m236.47113 10.683727l0 9.133858" fill-rule="evenodd"/><path stroke="#000000" stroke-width="1.0" stroke-linejoin="round" stroke-linecap="butt" d="m236.47113 10.683727l0 9.133858" fill-rule="evenodd"/><path fill="#000000" fill-opacity="0.0" d="m370.5186 195.4646l0 -195.3071" fill-rule="evenodd"/><path stroke="#000000" stroke-width="1.0" stroke-linejoin="round" stroke-linecap="butt" d="m370.5186 195.4646l0 -195.3071" fill-rule="evenodd"/><path fill="#000000" fill-opacity="0.0" d="m370.6288 0.28874016l-370.58267 0" fill-rule="evenodd"/><path stroke="#000000" stroke-width="1.0" stroke-linejoin="round" stroke-linecap="butt" d="m370.6288 0.28874016l-370.58267 0" fill-rule="evenodd"/><path fill="#000000" fill-opacity="0.0" d="m-0.0011041994 194.96066l0 -194.96063" fill-rule="evenodd"/><path stroke="#000000" stroke-width="1.0" stroke-linejoin="round" stroke-linecap="butt" d="m-0.0011041994 194.96066l0 -194.96063" fill-rule="evenodd"/><path fill="#000000" fill-opacity="0.0" d="m370.6288 195.08664l-370.58267 0" fill-rule="evenodd"/><path stroke="#000000" stroke-width="1.0" stroke-linejoin="round" stroke-linecap="butt" d="m370.6288 195.08664l-370.58267 0" fill-rule="evenodd"/></g></svg>
