<svg version="1.1" viewBox="0.0 0.0 370.0 195.0" fill="none" stroke="none" stroke-linecap="square" stroke-miterlimit="10" xmlns:xlink="http://www.w3.org/1999/xlink" xmlns="http://www.w3.org/2000/svg"><clipPath id="p.0"><path d="m0 0l960.0 0l0 720.0l-960.0 0l0 -720.0z" clip-rule="nonzero"/></clipPath><g clip-path="url(#p.0)"><path fill="#000000" fill-opacity="0.0" d="m0 0l960.0 0l0 720.0l-960.0 0z" fill-rule="evenodd"/><path fill="#cfe2f3" d="m29.070866 172.9252l-4.6062984 0l0 -36.27559l0 -1.1181183l101.71128 0l0 -2.5013123l120.803154 0l0 -102.832016l-1.9763794 0l0 -5.9238834l-45.687668 0l0 -5.1338596l84.727036 0l0 5.265093l-32.45407 0l0 107.769035l77.87927 0l0 -40.091866l4.475067 0l0 39.960625l12.706024 0l0 6.6483l-20.472443 0l0 30.611542l-73.07611 0l0 -30.083984l4.149597 0l0 25.871384l64.514465 0l0 -26.202087l-149.57219 0l0 1.1863403l-45.622047 0l0 6.5170593l-17.708664 0l0 22.38321l8.952759 0l0 -6.0577393l5.3989487 0l0 12.047241l-19.94751 0l0 -28.900269l-12.837273 0l0 -3.8188934l-39.039368 0l0 -1.4461975l-22.580051 0z" fill-rule="evenodd"/><path stroke="#000000" stroke-width="1.0" stroke-linejoin="round" stroke-linecap="butt" d="m29.070866 172.9252l-4.6062984 0l0 -36.27559l0 -1.1181183l101.71128 0l0 -2.5013123l120.803154 0l0 -102.832016l-1.9763794 0l0 -5.9238834l-45.687668 0l0 -5.1338596l84.727036 0l0 5.265093l-32.45407 0l0 107.769035l77.87927 0l0 -40.091866l4.475067 0l0 39.960625l12.706024 0l0 6.6483l-20.472443 0l0 30.611542l-73.07611 0l0 -30.083984l4.149597 0l0 25.871384l64.514465 0l0 -26.202087l-149.57219 0l0 1.1863403l-45.622047 0l0 6.5170593l-17.708664 0l0 22.38321l8.952759 0l0 -6.0577393l5.3989487 0l0 12.047241l-19.94751 0l0 -28.900269l-12.837273 0l0 -3.8188934l-39.039368 0l0 -1.4461975l-22.580051 0z" fill-rule="evenodd"/><path fill="#000000" fill-opacity="0.0" d="m253.72441 138.97769l3.2440948 0.15748596" fill-rule="evenodd"/><path stroke="#c9daf8" stroke-width="2.0" stroke-linejoin="round" stroke-linecap="butt" d="m253.72441 138.97769l3.2440948 0.15748596" fill-rule="evenodd"/><path fill="#fce5cd" d="m51.233597 142.37665l0 39.40419l-27.36483 0l0 -8.745407l5.6587925 0l0 -32.097107l21.811022 0z" fill-rule="evenodd"/><path stroke="#000000" stroke-width="1.0" stroke-linejoin="round" stroke-linecap="butt" d="m51.233597 142.37665l0 39.40419l-27.36483 0l0 -8.745407l5.6587925 0l0 -32.097107l21.811022 0z" fill-rule="evenodd"/><path fill="#fce5cd" d="m24.175854 172.62599l-14.813649 0l0 -51.23623l39.299213 0l0 -6.68766l89.60892 0l0 -1.6456757l108.23097 0l0 19.341217l-120.78215 0l0 2.4698029l-101.645676 0z" fill-rule="evenodd"/><path stroke="#000000" stroke-width="1.0" stroke-linejoin="round" stroke-linecap="butt" d="m24.175854 172.62599l-14.813649 0l0 -51.23623l39.299213 0l0 -6.68766l89.60892 0l0 -1.6456757l108.23097 0l0 19.341217l-120.78215 0l0 2.4698029l-101.645676 0z" fill-rule="evenodd"/><path fill="#fce5cd" d="m90.43307 146.2874l0 34.566925l13.06562 0l0 -34.257217z" fill-rule="evenodd"/><path stroke="#000000" stroke-width="1.0" stroke-linejoin="round" stroke-linecap="butt" d="m90.43307 146.2874l0 34.566925l13.06562 0l0 -34.257217z" fill-rule="evenodd"/><path fill="#fce5cd" d="m103.703415 181.06168l0 -6.275589l19.75328 0l0 -12.448822l-5.8635178 0l0 6.173233l-8.230972 0l0 -21.503937l18.005249 0l0 -6.377945l35.183723 0l0 6.377945l8.643051 0l0 30.968506l-28.601059 0l0 2.8792572l-18.107605 0l0 2.3674622l-16.564308 0l0 -2.0577393z" fill-rule="evenodd"/><path stroke="#000000" stroke-width="1.0" stroke-linejoin="round" stroke-linecap="butt" d="m103.703415 181.06168l0 -6.275589l19.75328 0l0 -12.448822l-5.8635178 0l0 6.173233l-8.230972 0l0 -21.503937l18.005249 0l0 -6.377945l35.183723 0l0 6.377945l8.643051 0l0 30.968506l-28.601059 0l0 2.8792572l-18.107605 0l0 2.3674622l-16.564308 0l0 -2.0577393z" fill-rule="evenodd"/><path fill="#b4a7d6" d="m162.96326 140.42389l0 5.9658813l8.538055 0l0 -5.9658813z" fill-rule="evenodd"/><path stroke="#000000" stroke-width="1.0" stroke-linejoin="round" stroke-linecap="butt" d="m162.96326 140.42389l0 5.9658813l8.538055 0l0 -5.9658813z" fill-rule="evenodd"/><path fill="#fce5cd" d="m172.53018 139.29265l0 13.887146l60.905518 0l0 25.824142l20.062988 0l0 -39.81627z" fill-rule="evenodd"/><path stroke="#000000" stroke-width="1.0" stroke-linejoin="round" stroke-linecap="butt" d="m172.53018 139.29265l0 13.887146l60.905518 0l0 25.824142l20.062988 0l0 -39.81627z" fill-rule="evenodd"/><path fill="#fce5cd" d="m254.01312 169.64174l72.53018 0l0 -30.556442l20.67978 0l0 -7.6115417l-12.551178 0l0 -19.343834l25.0 0l0 66.35958l-105.96849 0z" fill-rule="evenodd"/><path stroke="#000000" stroke-width="1.0" stroke-linejoin="round" stroke-linecap="butt" d="m254.01312 169.64174l72.53018 0l0 -30.556442l20.67978 0l0 -7.6115417l-12.551178 0l0 -19.343834l25.0 0l0 66.35958l-105.96849 0z" fill-rule="evenodd"/><path fill="#fce5cd" d="m321.1942 139.29265l-63.375305 0l0 25.307083l63.580048 0z" fill-rule="evenodd"/><path stroke="#000000" stroke-width="1.0" stroke-linejoin="round" stroke-linecap="butt" d="m321.1942 139.29265l-63.375305 0l0 25.307083l63.580048 0z" fill-rule="evenodd"/><path fill="#fce5cd" d="m357.09973 111.615486l0 -26.543304l-36.21521 0l0 27.162727l-68.72441 0l0 19.341202l76.85301 0l0 -40.123352l5.7611694 0l0 19.958z" fill-rule="evenodd"/><path stroke="#000000" stroke-width="1.0" stroke-linejoin="round" stroke-linecap="butt" d="m357.09973 111.615486l0 -26.543304l-36.21521 0l0 27.162727l-68.72441 0l0 19.341202l76.85301 0l0 -40.123352l5.7611694 0l0 19.958z" fill-rule="evenodd"/><path fill="#fce5cd" d="m252.16011 106.8832l7.7165375 0l0 -59.257217l26.852997 0l3.2414856 -3.2388458l0 -10.650917l3.1627197 -3.1627312l0 -8.359579l-2.0 -3.4619427l-4.509186 0l0 -4.254593l-2.4671936 -2.4671917l-27.984253 0l-1.782135 -3.0866146l-4.391083 0l-1.5695496 -2.7191596l-4.7060394 0l-1.2887115 2.2309709l0 10.362205l42.131226 0l0 6.0708656l-32.406815 0z" fill-rule="evenodd"/><path stroke="#000000" stroke-width="1.0" stroke-linejoin="round" stroke-linecap="butt" d="m252.16011 106.8832l7.7165375 0l0 -59.257217l26.852997 0l3.2414856 -3.2388458l0 -10.650917l3.1627197 -3.1627312l0 -8.359579l-2.0 -3.4619427l-4.509186 0l0 -4.254593l-2.4671936 -2.4671917l-27.984253 0l-1.782135 -3.0866146l-4.391083 0l-1.5695496 -2.7191596l-4.7060394 0l-1.2887115 2.2309709l0 10.362205l42.131226 0l0 6.0708656l-32.406815 0z" fill-rule="evenodd"/><path fill="#b4a7d6" d="m241.87138 18.510498l-13.989487 0l0 -6.380577l1.8241425 -3.1601048l12.27034 0z" fill-rule="evenodd"/><path stroke="#000000" stroke-width="1.0" stroke-linejoin="round" stroke-linecap="butt" d="m241.87138 18.510498l-13.989487 0l0 -6.380577l1.8241425 -3.1601048l12.27034 0z" fill-rule="evenodd"/><path fill="#fce5cd" d="m227.26247 18.510498l0 -7.3044615l-28.703415 0l-1.7401581 3.015748l0 4.391077l-4.123352 0l-1.887146 3.27034l0 8.971128l2.4855652 4.3044643l0 9.275589l2.1811066 3.7769012l28.80577 0l0 58.776905l22.220474 0l0 -76.13386l-1.8503876 0l0 -6.275589l-45.679794 0l0 -5.8635178z" fill-rule="evenodd"/><path stroke="#000000" stroke-width="1.0" stroke-linejoin="round" stroke-linecap="butt" d="m227.26247 18.510498l0 -7.3044615l-28.703415 0l-1.7401581 3.015748l0 4.391077l-4.123352 0l-1.887146 3.27034l0 8.971128l2.4855652 4.3044643l0 9.275589l2.1811066 3.7769012l28.80577 0l0 58.776905l22.220474 0l0 -76.13386l-1.8503876 0l0 -6.275589l-45.679794 0l0 -5.8635178z" fill-rule="evenodd"/><path fill="#000000" fill-opacity="0.0" d="m28.986877 173.25328l0.12598419 8.787399" fill-rule="evenodd"/><path stroke="#000000" stroke-width="1.0" stroke-linejoin="round" stroke-linecap="butt" d="m28.986877 173.25328l0.12598419 8.787399" fill-rule="evenodd"/><path fill="#000000" fill-opacity="0.0" d="m29.955381 144.52625l20.755903 0" fill-rule="evenodd"/><path stroke="#000000" stroke-width="1.0" stroke-linejoin="round" stroke-linecap="butt" d="m29.955381 144.52625l20.755903 0" fill-rule="evenodd"/><path fill="#000000" fill-opacity="0.0" d="m23.742783 153.9042l-13.606299 0" fill-rule="evenodd"/><path stroke="#000000" stroke-width="1.0" stroke-linejoin="round" stroke-linecap="butt" d="m23.742783 153.9042l-13.606299 0" fill-rule="evenodd"/><path fill="#000000" fill-opacity="0.0" d="m23.742783 145.34514l-13.826772 0" fill-rule="evenodd"/><path stroke="#000000" stroke-width="1.0" stroke-linejoin="round" stroke-linecap="butt" d="m23.742783 145.34514l-13.826772 0" fill-rule="evenodd"/><path fill="#000000" fill-opacity="0.0" d="m24.328083 135.03018l-14.425196 0" fill-rule="evenodd"/><path stroke="#000000" stroke-width="1.0" stroke-linejoin="round" stroke-linecap="butt" d="m24.328083 135.03018l-14.425196 0" fill-rule="evenodd"/><path fill="#000000" fill-opacity="0.0" d="m24.797901 134.91208l0 -13.133865" fill-rule="evenodd"/><path stroke="#000000" stroke-width="1.0" stroke-linejoin="round" stroke-linecap="butt" d="m24.797901 134.91208l0 -13.133865" fill-rule="evenodd"/><path fill="#000000" fill-opacity="0.0" d="m43.086613 134.79659l0 -13.007874" fill-rule="evenodd"/><path stroke="#000000" stroke-width="1.0" stroke-linejoin="round" stroke-linecap="butt" d="m43.086613 134.79659l0 -13.007874" fill-rule="evenodd"/><path fill="#000000" fill-opacity="0.0" d="m49.183727 134.56036l0 -19.118103" fill-rule="evenodd"/><path stroke="#000000" stroke-width="1.0" stroke-linejoin="round" stroke-linecap="butt" d="m49.183727 134.56036l0 -19.118103" fill-rule="evenodd"/><path fill="#000000" fill-opacity="0.0" d="m62.07874 135.03018l0 -20.283463" fill-rule="evenodd"/><path stroke="#000000" stroke-width="1.0" stroke-linejoin="round" stroke-linecap="butt" d="m62.07874 135.03018l0 -20.283463" fill-rule="evenodd"/><path fill="#000000" fill-opacity="0.0" d="m89.51181 134.91208l0 -19.685043" fill-rule="evenodd"/><path stroke="#000000" stroke-width="1.0" stroke-linejoin="round" stroke-linecap="butt" d="m89.51181 134.91208l0 -19.685043" fill-rule="evenodd"/><path fill="#000000" fill-opacity="0.0" d="m107.80052 134.67848l0 -19.937012" fill-rule="evenodd"/><path stroke="#000000" stroke-width="1.0" stroke-linejoin="round" stroke-linecap="butt" d="m107.80052 134.67848l0 -19.937012" fill-rule="evenodd"/><path fill="#000000" fill-opacity="0.0" d="m115.301834 134.79659l0 -19.685036" fill-rule="evenodd"/><path stroke="#000000" stroke-width="1.0" stroke-linejoin="round" stroke-linecap="butt" d="m115.301834 134.79659l0 -19.685036" fill-rule="evenodd"/><path fill="#000000" fill-opacity="0.0" d="m141.7979 131.86482l0 -18.519676" fill-rule="evenodd"/><path stroke="#000000" stroke-width="1.0" stroke-linejoin="round" stroke-linecap="butt" d="m141.7979 131.86482l0 -18.519676" fill-rule="evenodd"/><path fill="#000000" fill-opacity="0.0" d="m154.1076 132.56824l0 -19.590546" fill-rule="evenodd"/><path stroke="#000000" stroke-width="1.0" stroke-linejoin="round" stroke-linecap="butt" d="m154.1076 132.56824l0 -19.590546" fill-rule="evenodd"/><path fill="#000000" fill-opacity="0.0" d="m165.2441 132.33464l0 -19.212593" fill-rule="evenodd"/><path stroke="#000000" stroke-width="1.0" stroke-linejoin="round" stroke-linecap="butt" d="m165.2441 132.33464l0 -19.212593" fill-rule="evenodd"/><path fill="#000000" fill-opacity="0.0" d="m196.66142 132.68636l0 -19.46457" fill-rule="evenodd"/><path stroke="#000000" stroke-width="1.0" stroke-linejoin="round" stroke-linecap="butt" d="m196.66142 132.68636l0 -19.46457" fill-rule="evenodd"/><path fill="#000000" fill-opacity="0.0" d="m208.97113 132.33464l0 -18.866135" fill-rule="evenodd"/><path stroke="#000000" stroke-width="1.0" stroke-linejoin="round" stroke-linecap="butt" d="m208.97113 132.33464l0 -18.866135" fill-rule="evenodd"/><path fill="#000000" fill-opacity="0.0" d="m221.75066 132.68636l0 -5.0393753" fill-rule="evenodd"/><path stroke="#000000" stroke-width="1.0" stroke-linejoin="round" stroke-linecap="butt" d="m221.75066 132.68636l0 -5.0393753" fill-rule="evenodd"/><path fill="#000000" fill-opacity="0.0" d="m222.10236 127.644356l24.629929 0" fill-rule="evenodd"/><path stroke="#000000" stroke-width="1.0" stroke-linejoin="round" stroke-linecap="butt" d="m222.10236 127.644356l24.629929 0" fill-rule="evenodd"/><path fill="#000000" fill-opacity="0.0" d="m103.343834 167.73885l-12.787407 0" fill-rule="evenodd"/><path stroke="#000000" stroke-width="1.0" stroke-linejoin="round" stroke-linecap="butt" d="m103.343834 167.73885l-12.787407 0" fill-rule="evenodd"/><path fill="#000000" fill-opacity="0.0" d="m115.419945 175.24016l0 7.62204" fill-rule="evenodd"/><path stroke="#000000" stroke-width="1.0" stroke-linejoin="round" stroke-linecap="butt" d="m115.419945 175.24016l0 7.62204" fill-rule="evenodd"/><path fill="#000000" fill-opacity="0.0" d="m123.391075 174.88846l0 8.440933" fill-rule="evenodd"/><path stroke="#000000" stroke-width="1.0" stroke-linejoin="round" stroke-linecap="butt" d="m123.391075 174.88846l0 8.440933" fill-rule="evenodd"/><path fill="#000000" fill-opacity="0.0" d="m117.41207 163.63387l-7.968498 0" fill-rule="evenodd"/><path stroke="#000000" stroke-width="1.0" stroke-linejoin="round" stroke-linecap="butt" d="m117.41207 163.63387l-7.968498 0" fill-rule="evenodd"/><path fill="#000000" fill-opacity="0.0" d="m115.301834 147.22179l0 16.18898" fill-rule="evenodd"/><path stroke="#000000" stroke-width="1.0" stroke-linejoin="round" stroke-linecap="butt" d="m115.301834 147.22179l0 16.18898" fill-rule="evenodd"/><path fill="#000000" fill-opacity="0.0" d="m123.15748 162.22704l0 -14.992126" fill-rule="evenodd"/><path stroke="#000000" stroke-width="1.0" stroke-linejoin="round" stroke-linecap="butt" d="m123.15748 162.22704l0 -14.992126" fill-rule="evenodd"/><path fill="#000000" fill-opacity="0.0" d="m127.845146 146.51837l34.362206 0" fill-rule="evenodd"/><path stroke="#000000" stroke-width="1.0" stroke-linejoin="round" stroke-linecap="butt" d="m127.845146 146.51837l34.362206 0" fill-rule="evenodd"/><path fill="#000000" fill-opacity="0.0" d="m131.95013 140.65749l0 5.637787" fill-rule="evenodd"/><path stroke="#000000" stroke-width="1.0" stroke-linejoin="round" stroke-linecap="butt" d="m131.95013 140.65749l0 5.637787" fill-rule="evenodd"/><path fill="#000000" fill-opacity="0.0" d="m142.50131 140.65749l0 5.637787" fill-rule="evenodd"/><path stroke="#000000" stroke-width="1.0" stroke-linejoin="round" stroke-linecap="butt" d="m142.50131 140.65749l0 5.637787" fill-rule="evenodd"/><path fill="#000000" fill-opacity="0.0" d="m150.35432 140.65749l0 5.5118103" fill-rule="evenodd"/><path stroke="#000000" stroke-width="1.0" stroke-linejoin="round" stroke-linecap="butt" d="m150.35432 140.65749l0 5.5118103" fill-rule="evenodd"/><path fill="#000000" fill-opacity="0.0" d="m155.74803 140.89108l0 5.3858185" fill-rule="evenodd"/><path stroke="#000000" stroke-width="1.0" stroke-linejoin="round" stroke-linecap="butt" d="m155.74803 140.89108l0 5.3858185" fill-rule="evenodd"/><path fill="#000000" fill-opacity="0.0" d="m159.26509 140.77559l0 5.5118103" fill-rule="evenodd"/><path stroke="#000000" stroke-width="1.0" stroke-linejoin="round" stroke-linecap="butt" d="m159.26509 140.77559l0 5.5118103" fill-rule="evenodd"/><path fill="#000000" fill-opacity="0.0" d="m142.38321 146.51837l0 31.527557" fill-rule="evenodd"/><path stroke="#000000" stroke-width="1.0" stroke-linejoin="round" stroke-linecap="butt" d="m142.38321 146.51837l0 31.527557" fill-rule="evenodd"/><path fill="#000000" fill-opacity="0.0" d="m184.1181 139.25066l0 13.732285" fill-rule="evenodd"/><path stroke="#000000" stroke-width="1.0" stroke-linejoin="round" stroke-linecap="butt" d="m184.1181 139.25066l0 13.732285" fill-rule="evenodd"/><path fill="#000000" fill-opacity="0.0" d="m190.80052 139.48425l0 13.732285" fill-rule="evenodd"/><path stroke="#000000" stroke-width="1.0" stroke-linejoin="round" stroke-linecap="butt" d="m190.80052 139.48425l0 13.732285" fill-rule="evenodd"/><path fill="#000000" fill-opacity="0.0" d="m215.65355 139.48425l0 13.606293" fill-rule="evenodd"/><path stroke="#000000" stroke-width="1.0" stroke-linejoin="round" stroke-linecap="butt" d="m215.65355 139.48425l0 13.606293" fill-rule="evenodd"/><path fill="#000000" fill-opacity="0.0" d="m222.92126 139.25066l0 13.952759" fill-rule="evenodd"/><path stroke="#000000" stroke-width="1.0" stroke-linejoin="round" stroke-linecap="butt" d="m222.92126 139.25066l0 13.952759" fill-rule="evenodd"/><path fill="#000000" fill-opacity="0.0" d="m233.70866 139.36876l0 13.606308" fill-rule="evenodd"/><path stroke="#000000" stroke-width="1.0" stroke-linejoin="round" stroke-linecap="butt" d="m233.70866 139.36876l0 13.606308" fill-rule="evenodd"/><path fill="#000000" fill-opacity="0.0" d="m233.94226 152.61548l19.2126 0" fill-rule="evenodd"/><path stroke="#000000" stroke-width="1.0" stroke-linejoin="round" stroke-linecap="butt" d="m233.94226 152.61548l19.2126 0" fill-rule="evenodd"/><path fill="#000000" fill-opacity="0.0" d="m253.6378 164.80708l-19.937012 0" fill-rule="evenodd"/><path stroke="#000000" stroke-width="1.0" stroke-linejoin="round" stroke-linecap="butt" d="m253.6378 164.80708l-19.937012 0" fill-rule="evenodd"/><path fill="#000000" fill-opacity="0.0" d="m240.50656 139.13255l0 13.480301" fill-rule="evenodd"/><path stroke="#000000" stroke-width="1.0" stroke-linejoin="round" stroke-linecap="butt" d="m240.50656 139.13255l0 13.480301" fill-rule="evenodd"/><path fill="#000000" fill-opacity="0.0" d="m216.00525 144.64436l-25.070862 0" fill-rule="evenodd"/><path stroke="#000000" stroke-width="1.0" stroke-linejoin="round" stroke-linecap="butt" d="m216.00525 144.64436l-25.070862 0" fill-rule="evenodd"/><path fill="#000000" fill-opacity="0.0" d="m200.53018 139.36876l0 5.039383" fill-rule="evenodd"/><path stroke="#000000" stroke-width="1.0" stroke-linejoin="round" stroke-linecap="butt" d="m200.53018 139.36876l0 5.039383" fill-rule="evenodd"/><path fill="#000000" fill-opacity="0.0" d="m206.04199 139.48425l0 5.1653595" fill-rule="evenodd"/><path stroke="#000000" stroke-width="1.0" stroke-linejoin="round" stroke-linecap="butt" d="m206.04199 139.48425l0 5.1653595" fill-rule="evenodd"/><path fill="#000000" fill-opacity="0.0" d="m259.6168 169.73097l0 8.566925" fill-rule="evenodd"/><path stroke="#000000" stroke-width="1.0" stroke-linejoin="round" stroke-linecap="butt" d="m259.6168 169.73097l0 8.566925" fill-rule="evenodd"/><path fill="#000000" fill-opacity="0.0" d="m265.5958 169.84908l0 8.4409485" fill-rule="evenodd"/><path stroke="#000000" stroke-width="1.0" stroke-linejoin="round" stroke-linecap="butt" d="m265.5958 169.84908l0 8.4409485" fill-rule="evenodd"/><path fill="#000000" fill-opacity="0.0" d="m272.27823 169.73097l0 8.4409485" fill-rule="evenodd"/><path stroke="#000000" stroke-width="1.0" stroke-linejoin="round" stroke-linecap="butt" d="m272.27823 169.73097l0 8.4409485" fill-rule="evenodd"/><path fill="#000000" fill-opacity="0.0" d="m278.4908 169.61285l0 8.56694" fill-rule="evenodd"/><path stroke="#000000" stroke-width="1.0" stroke-linejoin="round" stroke-linecap="butt" d="m278.4908 169.61285l0 8.56694" fill-rule="evenodd"/><path fill="#000000" fill-opacity="0.0" d="m284.58792 169.84908l0 8.4409485" fill-rule="evenodd"/><path stroke="#000000" stroke-width="1.0" stroke-linejoin="round" stroke-linecap="butt" d="m284.58792 169.84908l0 8.4409485" fill-rule="evenodd"/><path fill="#000000" fill-opacity="0.0" d="m290.91864 169.61285l0 8.4409485" fill-rule="evenodd"/><path stroke="#000000" stroke-width="1.0" stroke-linejoin="round" stroke-linecap="butt" d="m290.91864 169.61285l0 8.4409485" fill-rule="evenodd"/><path fill="#000000" fill-opacity="0.0" d="m297.24933 169.84908l0 8.4409485" fill-rule="evenodd"/><path stroke="#000000" stroke-width="1.0" stroke-linejoin="round" stroke-linecap="butt" d="m297.24933 169.84908l0 8.4409485" fill-rule="evenodd"/><path fill="#000000" fill-opacity="0.0" d="m303.22833 170.08267l0 8.220474" fill-rule="evenodd"/><path stroke="#000000" stroke-width="1.0" stroke-linejoin="round" stroke-linecap="butt" d="m303.22833 170.08267l0 8.220474" fill-rule="evenodd"/><path fill="#000000" fill-opacity="0.0" d="m309.32285 169.73097l0 8.661423" fill-rule="evenodd"/><path stroke="#000000" stroke-width="1.0" stroke-linejoin="round" stroke-linecap="butt" d="m309.32285 169.73097l0 8.661423" fill-rule="evenodd"/><path fill="#000000" fill-opacity="0.0" d="m315.88977 169.73097l0 8.661423" fill-rule="evenodd"/><path stroke="#000000" stroke-width="1.0" stroke-linejoin="round" stroke-linecap="butt" d="m315.88977 169.73097l0 8.661423" fill-rule="evenodd"/><path fill="#000000" fill-opacity="0.0" d="m322.10236 169.73097l0 8.787399" fill-rule="evenodd"/><path stroke="#000000" stroke-width="1.0" stroke-linejoin="round" stroke-linecap="butt" d="m322.10236 169.73097l0 8.787399" fill-rule="evenodd"/><path fill="#000000" fill-opacity="0.0" d="m326.43832 169.96457l8.566925 0" fill-rule="evenodd"/><path stroke="#000000" stroke-width="1.0" stroke-linejoin="round" stroke-linecap="butt" d="m326.43832 169.96457l8.566925 0" fill-rule="evenodd"/><path fill="#000000" fill-opacity="0.0" d="m334.87927 178.64174l0 -26.960632" fill-rule="evenodd"/><path stroke="#000000" stroke-width="1.0" stroke-linejoin="round" stroke-linecap="butt" d="m334.87927 178.64174l0 -26.960632" fill-rule="evenodd"/><path fill="#000000" fill-opacity="0.0" d="m334.87927 151.79396l24.724396 0" fill-rule="evenodd"/><path stroke="#000000" stroke-width="1.0" stroke-linejoin="round" stroke-linecap="butt" d="m334.87927 151.79396l24.724396 0" fill-rule="evenodd"/><path fill="#000000" fill-opacity="0.0" d="m334.99738 164.9252l-8.314972 0" fill-rule="evenodd"/><path stroke="#000000" stroke-width="1.0" stroke-linejoin="round" stroke-linecap="butt" d="m334.99738 164.9252l-8.314972 0" fill-rule="evenodd"/><path fill="#000000" fill-opacity="0.0" d="m334.99738 158.24278l-8.220459 0" fill-rule="evenodd"/><path stroke="#000000" stroke-width="1.0" stroke-linejoin="round" stroke-linecap="butt" d="m334.99738 158.24278l-8.220459 0" fill-rule="evenodd"/><path fill="#000000" fill-opacity="0.0" d="m335.11548 151.67586l-8.314941 0" fill-rule="evenodd"/><path stroke="#000000" stroke-width="1.0" stroke-linejoin="round" stroke-linecap="butt" d="m335.11548 151.67586l-8.314941 0" fill-rule="evenodd"/><path fill="#000000" fill-opacity="0.0" d="m334.7638 151.67586l0 -12.535431" fill-rule="evenodd"/><path stroke="#000000" stroke-width="1.0" stroke-linejoin="round" stroke-linecap="butt" d="m334.7638 151.67586l0 -12.535431" fill-rule="evenodd"/><path fill="#000000" fill-opacity="0.0" d="m334.87927 145.69685l-8.314972 0" fill-rule="evenodd"/><path stroke="#000000" stroke-width="1.0" stroke-linejoin="round" stroke-linecap="butt" d="m334.87927 145.69685l-8.314972 0" fill-rule="evenodd"/><path fill="#000000" fill-opacity="0.0" d="m329.4882 139.13255l0 6.4566803" fill-rule="evenodd"/><path stroke="#000000" stroke-width="1.0" stroke-linejoin="round" stroke-linecap="butt" d="m329.4882 139.13255l0 6.4566803" fill-rule="evenodd"/><path fill="#000000" fill-opacity="0.0" d="m340.62466 139.13255l0 12.535431" fill-rule="evenodd"/><path stroke="#000000" stroke-width="1.0" stroke-linejoin="round" stroke-linecap="butt" d="m340.62466 139.13255l0 12.535431" fill-rule="evenodd"/><path fill="#000000" fill-opacity="0.0" d="m347.3071 138.89896l12.188965 0" fill-rule="evenodd"/><path stroke="#000000" stroke-width="1.0" stroke-linejoin="round" stroke-linecap="butt" d="m347.3071 138.89896l12.188965 0" fill-rule="evenodd"/><path fill="#000000" fill-opacity="0.0" d="m347.3071 131.86482l12.188965 0" fill-rule="evenodd"/><path stroke="#000000" stroke-width="1.0" stroke-linejoin="round" stroke-linecap="butt" d="m347.3071 131.86482l12.188965 0" fill-rule="evenodd"/><path fill="#000000" fill-opacity="0.0" d="m340.85828 131.39502l0 -19.212608" fill-rule="evenodd"/><path stroke="#000000" stroke-width="1.0" stroke-linejoin="round" stroke-linecap="butt" d="m340.85828 131.39502l0 -19.212608" fill-rule="evenodd"/><path fill="#000000" fill-opacity="0.0" d="m334.7638 124.597115l5.858246 0" fill-rule="evenodd"/><path stroke="#000000" stroke-width="1.0" stroke-linejoin="round" stroke-linecap="butt" d="m334.7638 124.597115l5.858246 0" fill-rule="evenodd"/><path fill="#000000" fill-opacity="0.0" d="m334.52756 127.05905l6.330719 0" fill-rule="evenodd"/><path stroke="#000000" stroke-width="1.0" stroke-linejoin="round" stroke-linecap="butt" d="m334.52756 127.05905l6.330719 0" fill-rule="evenodd"/><path fill="#000000" fill-opacity="0.0" d="m337.6929 127.17454l0 4.4724503" fill-rule="evenodd"/><path stroke="#000000" stroke-width="1.0" stroke-linejoin="round" stroke-linecap="butt" d="m337.6929 127.17454l0 4.4724503" fill-rule="evenodd"/><path fill="#000000" fill-opacity="0.0" d="m334.64566 92.00656l0 -6.8031464" fill-rule="evenodd"/><path stroke="#000000" stroke-width="1.0" stroke-linejoin="round" stroke-linecap="butt" d="m334.64566 92.00656l0 -6.8031464" fill-rule="evenodd"/><path fill="#000000" fill-opacity="0.0" d="m329.60367 92.00656l-8.661407 0" fill-rule="evenodd"/><path stroke="#000000" stroke-width="1.0" stroke-linejoin="round" stroke-linecap="butt" d="m329.60367 92.00656l-8.661407 0" fill-rule="evenodd"/><path fill="#000000" fill-opacity="0.0" d="m329.13647 98.80446l-8.094482 0" fill-rule="evenodd"/><path stroke="#000000" stroke-width="1.0" stroke-linejoin="round" stroke-linecap="butt" d="m329.13647 98.80446l-8.094482 0" fill-rule="evenodd"/><path fill="#000000" fill-opacity="0.0" d="m329.3701 105.60499l-8.4409485 0" fill-rule="evenodd"/><path stroke="#000000" stroke-width="1.0" stroke-linejoin="round" stroke-linecap="butt" d="m329.3701 105.60499l-8.4409485 0" fill-rule="evenodd"/><path fill="#000000" fill-opacity="0.0" d="m329.01837 112.520996l-8.4409485 0" fill-rule="evenodd"/><path stroke="#000000" stroke-width="1.0" stroke-linejoin="round" stroke-linecap="butt" d="m329.01837 112.520996l-8.4409485 0" fill-rule="evenodd"/><path fill="#000000" fill-opacity="0.0" d="m315.41995 112.16929l0 19.338585" fill-rule="evenodd"/><path stroke="#000000" stroke-width="1.0" stroke-linejoin="round" stroke-linecap="butt" d="m315.41995 112.16929l0 19.338585" fill-rule="evenodd"/><path fill="#000000" fill-opacity="0.0" d="m329.25198 120.61024l-13.700806 0" fill-rule="evenodd"/><path stroke="#000000" stroke-width="1.0" stroke-linejoin="round" stroke-linecap="butt" d="m329.25198 120.61024l-13.700806 0" fill-rule="evenodd"/><path fill="#000000" fill-opacity="0.0" d="m321.75067 120.72835l0 11.244095" fill-rule="evenodd"/><path stroke="#000000" stroke-width="1.0" stroke-linejoin="round" stroke-linecap="butt" d="m321.75067 120.72835l0 11.244095" fill-rule="evenodd"/><path fill="#000000" fill-opacity="0.0" d="m303.22833 131.98294l0 -19.590553" fill-rule="evenodd"/><path stroke="#000000" stroke-width="1.0" stroke-linejoin="round" stroke-linecap="butt" d="m303.22833 131.98294l0 -19.590553" fill-rule="evenodd"/><path fill="#000000" fill-opacity="0.0" d="m290.33072 131.74672l0 -19.46457" fill-rule="evenodd"/><path stroke="#000000" stroke-width="1.0" stroke-linejoin="round" stroke-linecap="butt" d="m290.33072 131.74672l0 -19.46457" fill-rule="evenodd"/><path fill="#000000" fill-opacity="0.0" d="m277.7874 132.09842l0 -19.685036" fill-rule="evenodd"/><path stroke="#000000" stroke-width="1.0" stroke-linejoin="round" stroke-linecap="butt" d="m277.7874 132.09842l0 -19.685036" fill-rule="evenodd"/><path fill="#000000" fill-opacity="0.0" d="m265.5958 131.39502l0 -19.118118" fill-rule="evenodd"/><path stroke="#000000" stroke-width="1.0" stroke-linejoin="round" stroke-linecap="butt" d="m265.5958 131.39502l0 -19.118118" fill-rule="evenodd"/><path fill="#000000" fill-opacity="0.0" d="m278.3727 164.57349l0 -12.787399" fill-rule="evenodd"/><path stroke="#000000" stroke-width="1.0" stroke-linejoin="round" stroke-linecap="butt" d="m278.3727 164.57349l0 -12.787399" fill-rule="evenodd"/><path fill="#000000" fill-opacity="0.0" d="m278.021 151.79396l6.6771545 0" fill-rule="evenodd"/><path stroke="#000000" stroke-width="1.0" stroke-linejoin="round" stroke-linecap="butt" d="m278.021 151.79396l6.6771545 0" fill-rule="evenodd"/><path fill="#000000" fill-opacity="0.0" d="m284.7034 151.91208l0 -12.661423" fill-rule="evenodd"/><path stroke="#000000" stroke-width="1.0" stroke-linejoin="round" stroke-linecap="butt" d="m284.7034 151.91208l0 -12.661423" fill-rule="evenodd"/><path fill="#000000" fill-opacity="0.0" d="m290.91864 139.25066l0 25.196854" fill-rule="evenodd"/><path stroke="#000000" stroke-width="1.0" stroke-linejoin="round" stroke-linecap="butt" d="m290.91864 139.25066l0 25.196854" fill-rule="evenodd"/><path fill="#000000" fill-opacity="0.0" d="m291.03412 151.91208l30.236237 0" fill-rule="evenodd"/><path stroke="#000000" stroke-width="1.0" stroke-linejoin="round" stroke-linecap="butt" d="m291.03412 151.91208l30.236237 0" fill-rule="evenodd"/><path fill="#000000" fill-opacity="0.0" d="m316.00525 139.25066l0 12.4409485" fill-rule="evenodd"/><path stroke="#000000" stroke-width="1.0" stroke-linejoin="round" stroke-linecap="butt" d="m316.00525 139.25066l0 12.4409485" fill-rule="evenodd"/><path fill="#000000" fill-opacity="0.0" d="m300.2966 152.02756l0 12.4409485" fill-rule="evenodd"/><path stroke="#000000" stroke-width="1.0" stroke-linejoin="round" stroke-linecap="butt" d="m300.2966 152.02756l0 12.4409485" fill-rule="evenodd"/><path fill="#000000" fill-opacity="0.0" d="m313.0761 151.91208l0 12.787399" fill-rule="evenodd"/><path stroke="#000000" stroke-width="1.0" stroke-linejoin="round" stroke-linecap="butt" d="m313.0761 151.91208l0 12.787399" fill-rule="evenodd"/><path fill="#000000" fill-opacity="0.0" d="m247.18898 97.279526l-23.086624 0" fill-rule="evenodd"/><path stroke="#000000" stroke-width="1.0" stroke-linejoin="round" stroke-linecap="butt" d="m247.18898 97.279526l-23.086624 0" fill-rule="evenodd"/><path fill="#000000" fill-opacity="0.0" d="m247.07349 85.55774l-22.866135 0" fill-rule="evenodd"/><path stroke="#000000" stroke-width="1.0" stroke-linejoin="round" stroke-linecap="butt" d="m247.07349 85.55774l-22.866135 0" fill-rule="evenodd"/><path fill="#000000" fill-opacity="0.0" d="m246.95538 71.60761l-22.740158 0" fill-rule="evenodd"/><path stroke="#000000" stroke-width="1.0" stroke-linejoin="round" stroke-linecap="butt" d="m246.95538 71.60761l-22.740158 0" fill-rule="evenodd"/><path fill="#000000" fill-opacity="0.0" d="m247.18898 60.82021l-22.86615 0" fill-rule="evenodd"/><path stroke="#000000" stroke-width="1.0" stroke-linejoin="round" stroke-linecap="butt" d="m247.18898 60.82021l-22.86615 0" fill-rule="evenodd"/><path fill="#000000" fill-opacity="0.0" d="m224.2126 48.04331l22.866135 0" fill-rule="evenodd"/><path stroke="#000000" stroke-width="1.0" stroke-linejoin="round" stroke-linecap="butt" d="m224.2126 48.04331l22.866135 0" fill-rule="evenodd"/><path fill="#000000" fill-opacity="0.0" d="m259.9685 104.431755l-7.7480316 0" fill-rule="evenodd"/><path stroke="#000000" stroke-width="1.0" stroke-linejoin="round" stroke-linecap="butt" d="m259.9685 104.431755l-7.7480316 0" fill-rule="evenodd"/><path fill="#000000" fill-opacity="0.0" d="m260.32022 97.51575l-7.968521 0" fill-rule="evenodd"/><path stroke="#000000" stroke-width="1.0" stroke-linejoin="round" stroke-linecap="butt" d="m260.32022 97.51575l-7.968521 0" fill-rule="evenodd"/><path fill="#000000" fill-opacity="0.0" d="m259.9685 92.00656l-8.094498 0" fill-rule="evenodd"/><path stroke="#000000" stroke-width="1.0" stroke-linejoin="round" stroke-linecap="butt" d="m259.9685 92.00656l-8.094498 0" fill-rule="evenodd"/><path fill="#000000" fill-opacity="0.0" d="m260.2021 86.14304l-7.9684906 0" fill-rule="evenodd"/><path stroke="#000000" stroke-width="1.0" stroke-linejoin="round" stroke-linecap="butt" d="m260.2021 86.14304l-7.9684906 0" fill-rule="evenodd"/><path fill="#000000" fill-opacity="0.0" d="m260.0866 79.227036l-7.842514 0" fill-rule="evenodd"/><path stroke="#000000" stroke-width="1.0" stroke-linejoin="round" stroke-linecap="butt" d="m260.0866 79.227036l-7.842514 0" fill-rule="evenodd"/><path fill="#000000" fill-opacity="0.0" d="m260.2021 72.77821l-8.188965 0" fill-rule="evenodd"/><path stroke="#000000" stroke-width="1.0" stroke-linejoin="round" stroke-linecap="butt" d="m260.2021 72.77821l-8.188965 0" fill-rule="evenodd"/><path fill="#000000" fill-opacity="0.0" d="m260.2021 66.33202l-8.094482 0" fill-rule="evenodd"/><path stroke="#000000" stroke-width="1.0" stroke-linejoin="round" stroke-linecap="butt" d="m260.2021 66.33202l-8.094482 0" fill-rule="evenodd"/><path fill="#000000" fill-opacity="0.0" d="m260.32022 60.001312l-8.314972 0" fill-rule="evenodd"/><path stroke="#000000" stroke-width="1.0" stroke-linejoin="round" stroke-linecap="butt" d="m260.32022 60.001312l-8.314972 0" fill-rule="evenodd"/><path fill="#000000" fill-opacity="0.0" d="m260.0866 53.200787l-7.842514 0" fill-rule="evenodd"/><path stroke="#000000" stroke-width="1.0" stroke-linejoin="round" stroke-linecap="butt" d="m260.0866 53.200787l-7.842514 0" fill-rule="evenodd"/><path fill="#000000" fill-opacity="0.0" d="m260.5538 47.57349l-8.566925 0" fill-rule="evenodd"/><path stroke="#000000" stroke-width="1.0" stroke-linejoin="round" stroke-linecap="butt" d="m260.5538 47.57349l-8.566925 0" fill-rule="evenodd"/><path fill="#000000" fill-opacity="0.0" d="m263.25198 24.948818l0 22.3937" fill-rule="evenodd"/><path stroke="#000000" stroke-width="1.0" stroke-linejoin="round" stroke-linecap="butt" d="m263.25198 24.948818l0 22.3937" fill-rule="evenodd"/><path fill="#000000" fill-opacity="0.0" d="m278.4908 24.948818l0 22.3937" fill-rule="evenodd"/><path stroke="#000000" stroke-width="1.0" stroke-linejoin="round" stroke-linecap="butt" d="m278.4908 24.948818l0 22.3937" fill-rule="evenodd"/><path fill="#000000" fill-opacity="0.0" d="m263.48557 36.788715l-11.023621 0" fill-rule="evenodd"/><path stroke="#000000" stroke-width="1.0" stroke-linejoin="round" stroke-linecap="butt" d="m263.48557 36.788715l-11.023621 0" fill-rule="evenodd"/><path fill="#000000" fill-opacity="0.0" d="m284.58792 24.360893l1.9842529 0" fill-rule="evenodd"/><path stroke="#000000" stroke-width="1.0" stroke-linejoin="round" stroke-linecap="butt" d="m284.58792 24.360893l1.9842529 0" fill-rule="evenodd"/><path fill="#000000" fill-opacity="0.0" d="m286.58005 24.360893l0 9.259842" fill-rule="evenodd"/><path stroke="#000000" stroke-width="1.0" stroke-linejoin="round" stroke-linecap="butt" d="m286.58005 24.360893l0 9.259842" fill-rule="evenodd"/><path fill="#000000" fill-opacity="0.0" d="m286.46194 33.50525l3.7480164 0" fill-rule="evenodd"/><path stroke="#000000" stroke-width="1.0" stroke-linejoin="round" stroke-linecap="butt" d="m286.46194 33.50525l3.7480164 0" fill-rule="evenodd"/><path fill="#000000" fill-opacity="0.0" d="m286.69815 18.851706l-2.4566956 0" fill-rule="evenodd"/><path stroke="#000000" stroke-width="1.0" stroke-linejoin="round" stroke-linecap="butt" d="m286.69815 18.851706l-2.4566956 0" fill-rule="evenodd"/><path fill="#b4a7d6" d="m238.86613 47.57349l0 -11.6063l7.6194305 0l0 11.48819z" fill-rule="evenodd"/><path stroke="#000000" stroke-width="1.0" stroke-linejoin="round" stroke-linecap="butt" d="m238.86613 47.57349l0 -11.6063l7.6194305 0l0 11.48819z" fill-rule="evenodd"/><path fill="#000000" fill-opacity="0.0" d="m225.85301 47.807087l0 -23.086615" fill-rule="evenodd"/><path stroke="#000000" stroke-width="1.0" stroke-linejoin="round" stroke-linecap="butt" d="m225.85301 47.807087l0 -23.086615" fill-rule="evenodd"/><path fill="#000000" fill-opacity="0.0" d="m238.74803 40.072178l-12.661423 0" fill-rule="evenodd"/><path stroke="#000000" stroke-width="1.0" stroke-linejoin="round" stroke-linecap="butt" d="m238.74803 40.072178l-12.661423 0" fill-rule="evenodd"/><path fill="#000000" fill-opacity="0.0" d="m236.05249 24.712599l0 8.913385" fill-rule="evenodd"/><path stroke="#000000" stroke-width="1.0" stroke-linejoin="round" stroke-linecap="butt" d="m236.05249 24.712599l0 8.913385" fill-rule="evenodd"/><path fill="#000000" fill-opacity="0.0" d="m236.17061 33.62336l9.952744 0" fill-rule="evenodd"/><path stroke="#000000" stroke-width="1.0" stroke-linejoin="round" stroke-linecap="butt" d="m236.17061 33.62336l9.952744 0" fill-rule="evenodd"/><path fill="#000000" fill-opacity="0.0" d="m239.09973 35.96719l0 -2.1102333" fill-rule="evenodd"/><path stroke="#000000" stroke-width="1.0" stroke-linejoin="round" stroke-linecap="butt" d="m239.09973 35.96719l0 -2.1102333" fill-rule="evenodd"/><path fill="#000000" fill-opacity="0.0" d="m238.86613 24.712599l0 5.5118103" fill-rule="evenodd"/><path stroke="#000000" stroke-width="1.0" stroke-linejoin="round" stroke-linecap="butt" d="m238.86613 24.712599l0 5.5118103" fill-rule="evenodd"/><path fill="#000000" fill-opacity="0.0" d="m238.86613 30.22441l5.637802 0" fill-rule="evenodd"/><path stroke="#000000" stroke-width="1.0" stroke-linejoin="round" stroke-linecap="butt" d="m238.86613 30.22441l5.637802 0" fill-rule="evenodd"/><path fill="#000000" fill-opacity="0.0" d="m217.8819 47.807087l0 -23.086615" fill-rule="evenodd"/><path stroke="#000000" stroke-width="1.0" stroke-linejoin="round" stroke-linecap="butt" d="m217.8819 47.807087l0 -23.086615" fill-rule="evenodd"/><path fill="#000000" fill-opacity="0.0" d="m205.22047 47.807087l0 -22.866142" fill-rule="evenodd"/><path stroke="#000000" stroke-width="1.0" stroke-linejoin="round" stroke-linecap="butt" d="m205.22047 47.807087l0 -22.866142" fill-rule="evenodd"/><path fill="#000000" fill-opacity="0.0" d="m199.47507 24.597113l-2.1102448 0" fill-rule="evenodd"/><path stroke="#000000" stroke-width="1.0" stroke-linejoin="round" stroke-linecap="butt" d="m199.47507 24.597113l-2.1102448 0" fill-rule="evenodd"/><path fill="#000000" fill-opacity="0.0" d="m197.24934 24.597113l0 10.204725" fill-rule="evenodd"/><path stroke="#000000" stroke-width="1.0" stroke-linejoin="round" stroke-linecap="butt" d="m197.24934 24.597113l0 10.204725" fill-rule="evenodd"/><path fill="#000000" fill-opacity="0.0" d="m197.48294 34.79659l-4.0944824 0" fill-rule="evenodd"/><path stroke="#000000" stroke-width="1.0" stroke-linejoin="round" stroke-linecap="butt" d="m197.48294 34.79659l-4.0944824 0" fill-rule="evenodd"/><path fill="#000000" fill-opacity="0.0" d="m199.35957 18.851706l-2.8031464 0" fill-rule="evenodd"/><path stroke="#000000" stroke-width="1.0" stroke-linejoin="round" stroke-linecap="butt" d="m199.35957 18.851706l-2.8031464 0" fill-rule="evenodd"/><path fill="#000000" fill-opacity="0.0" d="m209.67455 11.347769l0 7.1496067" fill-rule="evenodd"/><path stroke="#000000" stroke-width="1.0" stroke-linejoin="round" stroke-linecap="butt" d="m209.67455 11.347769l0 7.1496067" fill-rule="evenodd"/><path fill="#000000" fill-opacity="0.0" d="m249.88715 9.003937l0 9.6063" fill-rule="evenodd"/><path stroke="#000000" stroke-width="1.0" stroke-linejoin="round" stroke-linecap="butt" d="m249.88715 9.003937l0 9.6063" fill-rule="evenodd"/><path fill="#000000" fill-opacity="0.0" d="m255.74803 11.699475l0 7.0236216" fill-rule="evenodd"/><path stroke="#000000" stroke-width="1.0" stroke-linejoin="round" stroke-linecap="butt" d="m255.74803 11.699475l0 7.0236216" fill-rule="evenodd"/><path fill="#000000" fill-opacity="0.0" d="m261.60892 12.051181l0 6.803149" fill-rule="evenodd"/><path stroke="#000000" stroke-width="1.0" stroke-linejoin="round" stroke-linecap="butt" d="m261.60892 12.051181l0 6.803149" fill-rule="evenodd"/><path fill="#000000" fill-opacity="0.0" d="m267.82153 12.287401l0 6.4566936" fill-rule="evenodd"/><path stroke="#000000" stroke-width="1.0" stroke-linejoin="round" stroke-linecap="butt" d="m267.82153 12.287401l0 6.4566936" fill-rule="evenodd"/><path fill="#000000" fill-opacity="0.0" d="m273.91864 12.287401l0 6.3307095" fill-rule="evenodd"/><path stroke="#000000" stroke-width="1.0" stroke-linejoin="round" stroke-linecap="butt" d="m273.91864 12.287401l0 6.3307095" fill-rule="evenodd"/><path fill="#000000" fill-opacity="0.0" d="m280.24933 12.402887l0 6.2047234" fill-rule="evenodd"/><path stroke="#000000" stroke-width="1.0" stroke-linejoin="round" stroke-linecap="butt" d="m280.24933 12.402887l0 6.2047234" fill-rule="evenodd"/><path fill="#000000" fill-opacity="0.0" d="m370.52026 194.86908l0 -195.30708" fill-rule="evenodd"/><path stroke="#000000" stroke-width="1.0" stroke-linejoin="round" stroke-linecap="butt" d="m370.52026 194.86908l0 -195.30708" fill-rule="evenodd"/><path fill="#000000" fill-opacity="0.0" d="m370.63052 -0.3067769l-370.58267 0" fill-rule="evenodd"/><path stroke="#000000" stroke-width="1.0" stroke-linejoin="round" stroke-linecap="butt" d="m370.63052 -0.3067769l-370.58267 0" fill-rule="evenodd"/><path fill="#000000" fill-opacity="0.0" d="m5.931759E-4 194.36514l0 -194.96063" fill-rule="evenodd"/><path stroke="#000000" stroke-width="1.0" stroke-linejoin="round" stroke-linecap="butt" d="m5.931759E-4 194.36514l0 -194.96063" fill-rule="evenodd"/><path fill="#000000" fill-opacity="0.0" d="m370.63052 194.49112l-370.58267 0" fill-rule="evenodd"/><path stroke="#000000" stroke-width="1.0" stroke-linejoin="round" stroke-linecap="butt" d="m370.63052 194.49112l-370.58267 0" fill-rule="evenodd"/></g></svg>
