<svg version="1.1" viewBox="0.0 0.0 370.0 195.0" fill="none" stroke="none" stroke-linecap="square" stroke-miterlimit="10" xmlns:xlink="http://www.w3.org/1999/xlink" xmlns="http://www.w3.org/2000/svg"><clipPath id="p.0"><path d="m0 0l960.0 0l0 720.0l-960.0 0l0 -720.0z" clip-rule="nonzero"/></clipPath><g clip-path="url(#p.0)"><path fill="#000000" fill-opacity="0.0" d="m0 0l960.0 0l0 720.0l-960.0 0z" fill-rule="evenodd"/><path fill="#cfe2f3" d="m135.32608 147.0315l0 22.62468l-36.824158 0l0 -34.417328l25.992126 0l0 9.748032l-21.05774 0l0 21.661423l27.91864 0l0 -19.616806z" fill-rule="evenodd"/><path stroke="#000000" stroke-width="1.0" stroke-linejoin="round" stroke-linecap="butt" d="m135.32608 147.0315l0 22.62468l-36.824158 0l0 -34.417328l25.992126 0l0 9.748032l-21.05774 0l0 21.661423l27.91864 0l0 -19.616806z" fill-rule="evenodd"/><path fill="#fce5cd" d="m142.97699 177.72179l-52.65354 0l0 -42.69554l8.0 0l0 34.939636l37.304466 0l0 -23.26509l7.837265 0z" fill-rule="evenodd"/><path stroke="#000000" stroke-width="1.0" stroke-linejoin="round" stroke-linecap="butt" d="m142.97699 177.72179l-52.65354 0l0 -42.69554l8.0 0l0 34.939636l37.304466 0l0 -23.26509l7.837265 0z" fill-rule="evenodd"/><path fill="#000000" fill-opacity="0.0" d="m90.73027 146.29134l7.338585 0" fill-rule="evenodd"/><path stroke="#000000" stroke-width="1.0" stroke-linejoin="round" stroke-linecap="butt" d="m90.73027 146.29134l7.338585 0" fill-rule="evenodd"/><path fill="#000000" fill-opacity="0.0" d="m90.81164 154.53806l7.338585 0" fill-rule="evenodd"/><path stroke="#000000" stroke-width="1.0" stroke-linejoin="round" stroke-linecap="butt" d="m90.81164 154.53806l7.338585 0" fill-rule="evenodd"/><path fill="#000000" fill-opacity="0.0" d="m90.81164 162.61942l7.275589 0" fill-rule="evenodd"/><path stroke="#000000" stroke-width="1.0" stroke-linejoin="round" stroke-linecap="butt" d="m90.81164 162.61942l7.275589 0" fill-rule="evenodd"/><path fill="#000000" fill-opacity="0.0" d="m98.486176 169.72179l-8.157478 0" fill-rule="evenodd"/><path stroke="#000000" stroke-width="1.0" stroke-linejoin="round" stroke-linecap="butt" d="m98.486176 169.72179l-8.157478 0" fill-rule="evenodd"/><path fill="#000000" fill-opacity="0.0" d="m102.97699 169.88452l0 7.496063" fill-rule="evenodd"/><path stroke="#000000" stroke-width="1.0" stroke-linejoin="round" stroke-linecap="butt" d="m102.97699 169.88452l0 7.496063" fill-rule="evenodd"/><path fill="#000000" fill-opacity="0.0" d="m110.486176 169.96588l0 7.3385773" fill-rule="evenodd"/><path stroke="#000000" stroke-width="1.0" stroke-linejoin="round" stroke-linecap="butt" d="m110.486176 169.96588l0 7.3385773" fill-rule="evenodd"/><path fill="#000000" fill-opacity="0.0" d="m123.79327 169.96588l0 7.3385773" fill-rule="evenodd"/><path stroke="#000000" stroke-width="1.0" stroke-linejoin="round" stroke-linecap="butt" d="m123.79327 169.96588l0 7.3385773" fill-rule="evenodd"/><path fill="#000000" fill-opacity="0.0" d="m130.64891 169.88452l0 7.685028" fill-rule="evenodd"/><path stroke="#000000" stroke-width="1.0" stroke-linejoin="round" stroke-linecap="butt" d="m130.64891 169.88452l0 7.685028" fill-rule="evenodd"/><path fill="#000000" fill-opacity="0.0" d="m135.62791 169.55643l7.1810913 0" fill-rule="evenodd"/><path stroke="#000000" stroke-width="1.0" stroke-linejoin="round" stroke-linecap="butt" d="m135.62791 169.55643l7.1810913 0" fill-rule="evenodd"/><path fill="#000000" fill-opacity="0.0" d="m135.87463 160.82152l7.275589 0" fill-rule="evenodd"/><path stroke="#000000" stroke-width="1.0" stroke-linejoin="round" stroke-linecap="butt" d="m135.87463 160.82152l7.275589 0" fill-rule="evenodd"/><path fill="#000000" fill-opacity="0.0" d="m135.956 152.82152l7.3385773 0" fill-rule="evenodd"/><path stroke="#000000" stroke-width="1.0" stroke-linejoin="round" stroke-linecap="butt" d="m135.956 152.82152l7.3385773 0" fill-rule="evenodd"/><path fill="#fce5cd" d="m103.62791 144.98688l27.593178 0l0 21.060364l-27.427818 0z" fill-rule="evenodd"/><path stroke="#000000" stroke-width="1.0" stroke-linejoin="round" stroke-linecap="butt" d="m103.62791 144.98688l27.593178 0l0 21.060364l-27.427818 0z" fill-rule="evenodd"/><path fill="#000000" fill-opacity="0.0" d="m104.11872 153.72179l26.866142 0" fill-rule="evenodd"/><path stroke="#000000" stroke-width="1.0" stroke-linejoin="round" stroke-linecap="butt" d="m104.11872 153.72179l26.866142 0" fill-rule="evenodd"/><path fill="#000000" fill-opacity="0.0" d="m125.42581 145.31233l0 16.094498" fill-rule="evenodd"/><path stroke="#000000" stroke-width="1.0" stroke-linejoin="round" stroke-linecap="butt" d="m125.42581 145.31233l0 16.094498" fill-rule="evenodd"/><path fill="#000000" fill-opacity="0.0" d="m131.38382 161.47507l-27.49607 0" fill-rule="evenodd"/><path stroke="#000000" stroke-width="1.0" stroke-linejoin="round" stroke-linecap="butt" d="m131.38382 161.47507l-27.49607 0" fill-rule="evenodd"/><path fill="#fce5cd" d="m90.16072 134.94489l0 -19.837273l52.48819 0l0 19.346458l0 12.083984l-11.346466 0l0 -1.8792572l-6.4488144 0l0 -9.958008z" fill-rule="evenodd"/><path stroke="#000000" stroke-width="1.0" stroke-linejoin="round" stroke-linecap="butt" d="m90.16072 134.94489l0 -19.837273l52.48819 0l0 19.346458l0 12.083984l-11.346466 0l0 -1.8792572l-6.4488144 0l0 -9.958008z" fill-rule="evenodd"/><path fill="#000000" fill-opacity="0.0" d="m116.935 115.026245l0 19.275589" fill-rule="evenodd"/><path stroke="#000000" stroke-width="1.0" stroke-linejoin="round" stroke-linecap="butt" d="m116.935 115.026245l0 19.275589" fill-rule="evenodd"/><path fill="#000000" fill-opacity="0.0" d="m124.609535 134.70079l17.952751 0" fill-rule="evenodd"/><path stroke="#000000" stroke-width="1.0" stroke-linejoin="round" stroke-linecap="butt" d="m124.609535 134.70079l17.952751 0" fill-rule="evenodd"/><path fill="#000000" fill-opacity="0.0" d="m370.51862 195.4637l0 -195.30708" fill-rule="evenodd"/><path stroke="#000000" stroke-width="1.0" stroke-linejoin="round" stroke-linecap="butt" d="m370.51862 195.4637l0 -195.30708" fill-rule="evenodd"/><path fill="#000000" fill-opacity="0.0" d="m370.62888 0.2878525l-370.58267 0" fill-rule="evenodd"/><path stroke="#000000" stroke-width="1.0" stroke-linejoin="round" stroke-linecap="butt" d="m370.62888 0.2878525l-370.58267 0" fill-rule="evenodd"/><path fill="#000000" fill-opacity="0.0" d="m-0.0010548556 194.95976l0 -194.96062" fill-rule="evenodd"/><path stroke="#000000" stroke-width="1.0" stroke-linejoin="round" stroke-linecap="butt" d="m-0.0010548556 194.95976l0 -194.96062" fill-rule="evenodd"/><path fill="#000000" fill-opacity="0.0" d="m370.62888 195.08575l-370.58267 0" fill-rule="evenodd"/><path stroke="#000000" stroke-width="1.0" stroke-linejoin="round" stroke-linecap="butt" d="m370.62888 195.08575l-370.58267 0" fill-rule="evenodd"/></g></svg>
